<?xml version="1.0" encoding="UTF-8" standalone="no"?>
<svg width="32px" height="32px" viewBox="0 0 32 32" version="1.1" xmlns="http://www.w3.org/2000/svg" xmlns:xlink="http://www.w3.org/1999/xlink" xmlns:sketch="http://www.bohemiancoding.com/sketch/ns">
    <!-- Generator: Sketch 3.3.2 (12043) - http://www.bohemiancoding.com/sketch -->
    <title>tw icon</title>
    <desc>Created with Sketch.</desc>
    <defs></defs>
    <g id="Welcome" stroke="none" stroke-width="1" fill="none" fill-rule="evenodd" sketch:type="MSPage">
        <g id="Desktop-HD" sketch:type="MSArtboardGroup" transform="translate(-428.000000, -1420.000000)">
            <g id="oradores" sketch:type="MSLayerGroup" transform="translate(110.000000, 1260.000000)">
                <g id="perfil-1" sketch:type="MSShapeGroup">
                    <g id="tw-icon" transform="translate(319.000000, 161.000000)">
                        <path d="M21.3733549,12.6633749 C21.3733549,16.9999038 18.0712778,22 12.0329676,22 C10.1794845,22 8.45359777,21.4568919 7,20.5257302 C7.25560971,20.5540736 7.5183081,20.5719965 7.7830914,20.5719965 C9.32133643,20.5719965 10.7365719,20.0468114 11.8607542,19.1660842 C10.4225848,19.1406586 9.21125329,18.1907403 8.79302077,16.8873641 C8.99358891,16.925711 9.19957781,16.9469685 9.40931954,16.9469685 C9.70954627,16.9469685 9.99976545,16.9061207 10.2745563,16.8315111 C8.77258867,16.5284876 7.6404837,15.2038539 7.6404837,13.6124595 L7.6404837,13.5716118 C8.08331813,13.8166982 8.58995074,13.9642502 9.12785698,13.9809228 C8.24719189,13.3923819 7.66842146,12.3870275 7.66842146,11.2491263 C7.66842146,10.6480811 7.83021032,10.0849659 8.11292382,9.60021161 C9.73081233,11.5854949 12.1505564,12.891372 14.8792838,13.0280868 C14.8225743,12.7888358 14.7950536,12.5370804 14.7950536,12.2799064 C14.7950536,10.469268 16.2644966,9 18.0766985,9 C19.0215788,9 19.8751401,9.39847382 20.4739256,10.0349482 C21.2207396,9.88864664 21.9241875,9.61563372 22.5584165,9.23925102 C22.3128144,10.0049376 21.7920044,10.6480811 21.1152433,11.0540575 C21.778661,10.9756966 22.4103881,10.7993844 23,10.5372086 C22.5609184,11.1986918 22.005082,11.7763955 21.3629303,12.2390586 C21.370436,12.3795248 21.3733549,12.5212415 21.3733549,12.6633749 Z" id="Path-2" fill="#333333"></path>
                        <circle id="Oval-1" stroke="#333333" stroke-width="2" cx="15" cy="15" r="15"></circle>
                    </g>
                </g>
            </g>
        </g>
    </g>
</svg>