<?xml version="1.0" standalone="no"?>
<!DOCTYPE svg PUBLIC "-//W3C//DTD SVG 20010904//EN"
 "http://www.w3.org/TR/2001/REC-SVG-20010904/DTD/svg10.dtd">
<svg version="1.0" xmlns="http://www.w3.org/2000/svg"
 width="300.000000pt" height="300.000000pt" viewBox="0 0 300.000000 300.000000"
 preserveAspectRatio="xMidYMid meet">
<metadata>
Created by potrace 1.11, written by Peter Selinger 2001-2013
</metadata>
<g transform="translate(0.000000,300.000000) scale(0.100000,-0.100000)"
fill="#000000" stroke="none">
<path d="M190 2849 c-66 -13 -120 -55 -153 -118 l-27 -55 0 -1220 c0 -1193 1
-1222 20 -1253 35 -58 118 -81 178 -49 15 8 108 96 207 196 111 112 195 189
220 201 38 18 85 19 1101 19 1136 0 1116 -1 1181 50 15 12 40 40 56 62 l27 41
0 983 c0 584 -4 993 -9 1007 -15 38 -70 96 -115 120 l-41 22 -1300 2 c-726 0
-1320 -3 -1345 -8z m2622 -186 c17 -15 18 -58 18 -948 0 -886 -1 -933 -18
-948 -16 -15 -115 -17 -1098 -19 l-1079 -3 -60 -24 c-51 -21 -83 -46 -221
-182 -88 -88 -163 -159 -167 -159 -4 0 -6 511 -5 1136 3 1111 3 1136 22 1150
17 12 211 14 1305 14 1181 0 1286 -1 1303 -17z"/>
<path d="M657 2303 c-19 -43 -32 -81 -29 -85 4 -3 101 -50 217 -103 116 -54
214 -99 218 -102 5 -3 -92 -52 -214 -109 -123 -57 -224 -106 -226 -108 -6 -6
69 -156 79 -156 5 0 133 57 284 128 l274 127 -2 114 -3 114 -275 129 c-151 70
-277 128 -281 128 -3 0 -22 -35 -42 -77z"/>
<path d="M1250 1400 l0 -90 365 0 365 0 0 90 0 90 -365 0 -365 0 0 -90z"/>
</g>
</svg>
