<svg xmlns="http://www.w3.org/2000/svg" viewBox="0 0 499.88 152.63"><defs><style>.cls-1{isolation:isolate}.cls-2{mix-blend-mode:multiply}.cls-3{fill:#e27a1d}</style></defs><title>Asset 11</title><g class="cls-1"><g id="Layer_2" data-name="Layer 2"><g id="Capa_1" data-name="Capa 1"><g id="_Group_" data-name="&lt;Group&gt;" class="cls-2"><path id="_Path_" data-name="&lt;Path&gt;" class="cls-3" d="M101.43 1.35L127 45.69a2.71 2.71 0 0 1-.32 3.15l-52.87 59.65a3.32 3.32 0 0 1-5.74-1.49l-16-78.1a2.71 2.71 0 0 1 1.32-2.9L97.73.36a2.71 2.71 0 0 1 3.7.99z"/><g id="_Group_2" data-name="&lt;Group&gt;"><path id="_Path_2" data-name="&lt;Path&gt;" class="cls-3" d="M51.86 120.52c-11.48 0-17.13-7.08-22.12-13.32C24.17 100.21 18.9 93.6 5 93.6h-.49a4.51 4.51 0 1 1 0-9H5c18.28 0 25.8 9.42 31.84 17 5.06 6.34 8.25 9.93 15.06 9.93 6.07 0 9.26-2.3 13-6.55L81.2 86.6a4.51 4.51 0 0 1 6.75 6l-16.3 18.38c-4.42 4.93-9.87 9.54-19.79 9.54z"/></g></g><g id="_Group_3" data-name="&lt;Group&gt;"><path id="_Compound_Path_" data-name="&lt;Compound Path&gt;" class="cls-3" d="M312 95.38a28.52 28.52 0 1 0 28.52 28.52A28.55 28.55 0 0 0 312 95.38zm0 47.53a19 19 0 1 1 19-19 19 19 0 0 1-19 19z"/><rect id="_Path_3" data-name="&lt;Path&gt;" class="cls-3" x="352" y="65.27" width="9.51" height="85.36" rx="2.38" ry="2.38"/><path id="_Compound_Path_2" data-name="&lt;Compound Path&gt;" class="cls-3" d="M159.46 102.66a28.52 28.52 0 1 0 0 42.47v3.13a2.38 2.38 0 0 0 2.38 2.38h4.75a2.38 2.38 0 0 0 2.38-2.38V98.94a2.38 2.38 0 0 0-2.38-2.38h-4.75a2.38 2.38 0 0 0-2.38 2.38zm-19 40.25a19 19 0 1 1 19-19 19 19 0 0 1-19.02 19z"/><path id="_Compound_Path_3" data-name="&lt;Compound Path&gt;" class="cls-3" d="M420.53 102.88a28.52 28.52 0 1 0 0 42.47v3.13a2.38 2.38 0 0 0 2.38 2.38h4.75a2.38 2.38 0 0 0 2.38-2.38V99.16a2.38 2.38 0 0 0-2.38-2.38h-4.75a2.38 2.38 0 0 0-2.38 2.38zm-19 40.25a19 19 0 1 1 19-19 19 19 0 0 1-19.01 18.99z"/><path id="_Compound_Path_4" data-name="&lt;Compound Path&gt;" class="cls-3" d="M452.35 67.65a2.38 2.38 0 0 0-2.35-2.38h-4.75a2.38 2.38 0 0 0-2.38 2.38v80.61a2.38 2.38 0 0 0 2.38 2.38H450a2.38 2.38 0 0 0 2.38-2.38v-3.13a28.52 28.52 0 1 0 0-42.47zm0 56.25a19 19 0 1 1 19 19 19 19 0 0 1-19-19z"/><path id="_Path_4" data-name="&lt;Path&gt;" class="cls-3" d="M256.12 96.56h-4.75a2.38 2.38 0 0 0-2.37 2.38v49.31a2.38 2.38 0 0 0 2.38 2.38h4.75a2.38 2.38 0 0 0 2.38-2.38V123.9a19 19 0 0 1 16.9-18.9 2.37 2.37 0 0 0 2.11-2.36v-4.78a2.38 2.38 0 0 0-2.6-2.37 28.41 28.41 0 0 0-16.41 7.17v-3.72a2.38 2.38 0 0 0-2.39-2.38z"/><path id="_Compound_Path_5" data-name="&lt;Compound Path&gt;" class="cls-3" d="M209 95.38a28.52 28.52 0 1 0 20.11 48.72 2.58 2.58 0 0 0-.19-3.81l-3.38-2.78a2.57 2.57 0 0 0-3.41.13 19 19 0 0 1-31.54-9h44.35a2.58 2.58 0 0 0 2.58-2.58v-2.16A28.55 28.55 0 0 0 209 95.38zm0 9.51a19 19 0 0 1 18.41 14.26h-36.85A19 19 0 0 1 209 104.88z"/></g></g></g></g></svg>