<svg width="906" height="146" viewBox="0 0 906 146" xmlns="http://www.w3.org/2000/svg"><title>frontendmasters.0e71088726 2</title><defs><linearGradient x1="-.022%" y1="50.005%" x2="99.986%" y2="50.005%" id="a"><stop stop-color="#FFF" stop-opacity="0" offset="67%"/><stop stop-color="#FFF" offset="100%"/></linearGradient><linearGradient x1="5.789%" y1="128.827%" x2="90.806%" y2="15.197%" id="b"><stop stop-color="#FFF" stop-opacity="0" offset="40%"/><stop stop-color="#3D3D3D" offset="100%"/></linearGradient></defs><g fill="none"><path fill="#434242" d="M42.44 49.74h-37V82.4h27.8V87H5.41v40.94H0v-82.8h42.44zm10 78.2H47V85.85l-2.15-19.43H50l2.07 17.25c4-8.4 10.35-17.83 20.82-17.83C83 65.84 85.68 76 85.68 84.24h-5.41c-.11-5.63-.46-13.8-7.82-13.8-6.21 0-20 9.66-20 32.78l-.01 24.72zm39.9-30.47c0-23.69 12.19-31.63 23.23-31.63 10.12 0 23.35 6.79 23.35 31.63s-13.11 31.74-23.35 31.74c-10.24 0-23.23-6.9-23.23-31.74zm41.17 0c0-11.85-3-27-17.94-27-14.94 0-17.83 15.18-17.83 27s3 27.14 17.83 27.14c14.83 0 17.94-15.3 17.94-27.14zm20.36 30.47h-5.41V97.47c0-10.35-.34-20.7-2.42-31.05h5.06l2.19 17.48h.23c2.3-9.09 12-18.06 21.62-18.06 11 0 14.15 9.54 14.15 18.75v43.36h-5.41V87.12c0-7 0-16.68-9.43-16.68-8.74 0-20.59 8.74-20.59 32.43l.01 25.07zm84.87-56.23h-22.31v41.52c0 5.87 2.19 11.39 9.66 11.39 6.79 0 11.5-5.06 14.15-10.81l5.17 1.26c-3.79 7.82-10.47 14.15-19.55 14.15C218 129.21 211 125.41 211 110V71.71h-13.66v-4.6H211V47.56h5.41v19.55h22.31l.02 4.6zM297 123.69c-7 3.1-13.92 5.52-21.74 5.52-17.83 0-24.38-16-24.38-31.4 0-15.4 6.79-32 24.73-32 10.24 0 22.31 7.36 22.31 32.55h-41.59c1 21.39 9.89 26.22 19.21 26.22 6.9 0 13.46-2.53 19.21-6l2.25 5.11zm-4.49-29.9c.58-10.47-5.63-23.35-17.6-23.35-11.97 0-19 12.65-18.63 23.35h36.23zm20.05 34.15h-5.41V97.47c0-10.35-.35-20.7-2.42-31.05h5.06L312 83.9h.23c2.3-9.09 12-18.06 21.62-18.06 11 0 14.15 9.54 14.15 18.75v43.36h-5.41V87.12c0-7 0-16.68-9.43-16.68-8.74 0-20.59 8.74-20.59 32.43l-.01 25.07zm89.01-21.39c0 7.47.58 14.83 2.76 22l-5.06.69-2.18-10a17.67 17.67 0 0 1-16.22 10c-10.24 0-23.58-8.39-23.58-32.09 0-24.38 15.53-31.28 23.92-31.28a24.07 24.07 0 0 1 15 5.17V42.61h5.41l-.05 63.94zm-5.41-30.13c-3.79-3.33-8.51-6-13.57-6-6.9 0-19.9 4.72-19.9 27 0 21 11.38 27.14 18.29 27.14 7.71 0 12.65-5.64 15.18-12.19V76.42z"/><path d="M684.14 94.33c.08.42.143.84.19 1.26.047.42.067.84.06 1.26a12.84 12.84 0 0 1-3 8.19 111.18 111.18 0 0 1-9.2 10.77 83.58 83.58 0 0 1-8.06 7.31 40.42 40.42 0 0 1-6.43 4.22 10.74 10.74 0 0 1-4.41 1.39 12.06 12.06 0 0 1-5.73-1.51 9.53 9.53 0 0 1-4.22-4.41 14 14 0 0 1 .38-3.15 31.75 31.75 0 0 1 1.26-4c.587-1.553 1.407-3.443 2.46-5.67a477.213 477.213 0 0 1 4.09-8.38c-1.333 0-2.217.333-2.65 1-3.947 5.293-7.327 9.627-10.14 13-2.813 3.373-5.23 6.04-7.25 8a24.12 24.12 0 0 1-5 4 7.77 7.77 0 0 1-3.53 1.07 12.92 12.92 0 0 1-9.39-5.48 20.13 20.13 0 0 1-3.34-11.91 46.35 46.35 0 0 1 3.46-18 53 53 0 0 1 8.71-14.39 42.46 42.46 0 0 1 11.6-9.58 24.93 24.93 0 0 1 12-3.46 16.93 16.93 0 0 1 7.5 1.51 22.47 22.47 0 0 1 6.49 5.29 40 40 0 0 1 8.38-4.6 17.43 17.43 0 0 1 5.35-1.32 4.3 4.3 0 0 1 3.78 2.14c-.42 1.6-1.007 3.6-1.76 6-.753 2.4-1.573 4.92-2.46 7.56a538.05 538.05 0 0 1-2.71 8A556.746 556.746 0 0 0 668 98c-.753 2.353-1.42 4.41-2 6.17a23.58 23.58 0 0 0-.95 3.78c0 .84.547 1.26 1.64 1.26a4.9 4.9 0 0 0 1.76-.63 21.67 21.67 0 0 0 3.4-2.33c1.427-1.133 3.15-2.667 5.17-4.6 2.02-1.933 4.393-4.373 7.12-7.32zM655 80.6c-2.353-2.18-4.58-3.273-6.68-3.28-1.847 0-3.903.967-6.17 2.9a35.69 35.69 0 0 0-6.43 7.43 48.59 48.59 0 0 0-5 9.89 29.1 29.1 0 0 0-2 10.27 4.25 4.25 0 0 0 .76 2.71 2.33 2.33 0 0 0 1.89.94c.753 0 2.033-.883 3.84-2.65a71.77 71.77 0 0 0 6.11-7c2.267-2.9 4.62-6.197 7.06-9.89A129 129 0 0 0 655 80.6z" fill="#C02D28"/><path d="M692.58 80.6a24 24 0 0 1 2.27-6.87 23.58 23.58 0 0 1 3.84-5.54 17.68 17.68 0 0 1 4.79-3.65 11.36 11.36 0 0 1 5.23-1.32 6.55 6.55 0 0 1 4.54 1.7 8 8 0 0 1 2.39 4.85 17.46 17.46 0 0 1-2.39 3.53 58.856 58.856 0 0 1-3.28 3.53 19 19 0 0 0 1.64 5.67c.92 2.1 1.887 4.347 2.9 6.74a76.34 76.34 0 0 1 2.71 7.56 28.44 28.44 0 0 1 1.2 8.25 15.38 15.38 0 0 1-2.77 8.51 33.2 33.2 0 0 1-7 7.62 37.47 37.47 0 0 1-9.26 5.48 25.13 25.13 0 0 1-9.58 2.08 28.68 28.68 0 0 1-8.38-1.13 24 24 0 0 1-6.36-2.9 13.89 13.89 0 0 1-4.1-4 8.38 8.38 0 0 1-1.45-4.54 18.64 18.64 0 0 1 .95-6 21.28 21.28 0 0 1 3.21-5.8c.667-.84 1.76-2.12 3.28-3.84a247.31 247.31 0 0 0 5-5.86c1.807-2.18 3.677-4.49 5.61-6.93a80.51 80.51 0 0 0 5.01-7.14zM695 91.31c-.84 1.18-1.91 2.513-3.21 4a339.977 339.977 0 0 1-4.22 4.73 311.097 311.097 0 0 1-4.72 5 1420.41 1420.41 0 0 0-4.6 4.79 23.62 23.62 0 0 0 6.68 6 14.13 14.13 0 0 0 7.18 2.14 7.14 7.14 0 0 0 5.23-2.2c1.467-1.467 2.203-3.673 2.21-6.62a22.13 22.13 0 0 0-.5-4.54 46.49 46.49 0 0 0-1.26-4.72 403.212 403.212 0 0 0-1.51-4.54c-.5-1.473-.927-2.82-1.28-4.04zm72.29 3.28c.08.42.143.84.19 1.26 0 .42.06.84.06 1.26a12.2 12.2 0 0 1-3 8.19 92.33 92.33 0 0 1-10.08 11.59 67.9 67.9 0 0 1-8.76 7.18 30.49 30.49 0 0 1-7 3.65 16.4 16.4 0 0 1-4.91 1 14 14 0 0 1-13.23-9.32l11.47-37-3.03.6a14.73 14.73 0 0 1-.76-4.41 12.92 12.92 0 0 1 1.44-5.59 8.38 8.38 0 0 1 3.09-3.53l3.4-.38 5.29-16.51a25.36 25.36 0 0 1 6.17-.76 15.1 15.1 0 0 1 7.06 1.51 6.33 6.33 0 0 1 3.53 4l-3 9.83 12-1.26a15.34 15.34 0 0 1-1.32 5.29 18.76 18.76 0 0 1-3.21 5l-11 2.39-8.32 28.1c0 2.86.883 4.287 2.65 4.28 1.333 0 3.727-1.177 7.18-3.53 3.453-2.353 8.15-6.633 14.09-12.84z" fill="#C02D28"/><path d="M820.84 92.95c.174.913.258 1.84.25 2.77a16.78 16.78 0 0 1-1.07 4.73 18 18 0 0 1-2.33 4.47c-5.88 7.9-11.843 13.843-17.89 17.83a33.46 33.46 0 0 1-18.65 6c-6.887 0-12.053-1.763-15.5-5.29-3.447-3.527-5.17-8.23-5.17-14.11.016-2.224.27-4.44.76-6.61a55.19 55.19 0 0 1 1.76-6.39 52.6 52.6 0 0 1 6.3-12.47 48.1 48.1 0 0 1 8.63-9.64 39.07 39.07 0 0 1 10-6.17 26.6 26.6 0 0 1 10.39-2.2c5.207 0 9.177 1.113 11.91 3.34a11.3 11.3 0 0 1 4.09 9.26 12.68 12.68 0 0 1-.76 4.1 15.35 15.35 0 0 1-2 4 18.78 18.78 0 0 1-3.34 3 69 69 0 0 1-6.68 4.35c-2.733 1.6-5.927 3.267-9.58 5a116.77 116.77 0 0 1-11.96 4.86 12 12 0 0 0-.19 1.51c0 .59-.06 1.22-.06 1.89a7.71 7.71 0 0 0 2.14 5.61c1.427 1.473 3.737 2.21 6.93 2.21 3.613 0 8.107-1.667 13.48-5 5.373-3.333 11.553-9.017 18.54-17.05zM794 75.94a4.14 4.14 0 0 0-2.14 1.06 15.35 15.35 0 0 0-3 3.46 47 47 0 0 0-3.4 6 59.31 59.31 0 0 0-3.28 8.69 86 86 0 0 0 9.83-5 25.57 25.57 0 0 0 5-3.78 8.24 8.24 0 0 0 1.78-5.37c0-3.373-1.597-5.06-4.79-5.06z" fill="#C02D28"/><path d="M871 94.33c.18.395.265.826.25 1.26v1.26a11.91 11.91 0 0 1-.82 4.28 14.88 14.88 0 0 1-2.21 3.91 113.09 113.09 0 0 1-9.51 11.21 77.75 77.75 0 0 1-8.13 7.31 31.34 31.34 0 0 1-6.49 4 12.58 12.58 0 0 1-4.6 1.2 12.11 12.11 0 0 1-6.8-2.08 16.63 16.63 0 0 1-5.42-6.49 26.28 26.28 0 0 1 2.08-7.25 80.13 80.13 0 0 1 4.16-8.25 202.212 202.212 0 0 1 5.17-8.5 361.562 361.562 0 0 0 5-8 2.44 2.44 0 0 0-.5-1.45 4.78 4.78 0 0 0-2-1.32c-1.093-.42-2.27-.84-3.53-1.26-1.26-.42-2.26-.797-3-1.13-2 3.193-4.31 6.527-6.93 10a249.057 249.057 0 0 1-8.13 10.21 195.87 195.87 0 0 1-8.5 9.45 99.26 99.26 0 0 1-8.06 7.62 5 5 0 0 1-1.45-2.14 8.36 8.36 0 0 1-.44-2.77c0-1.09.168-2.172.5-3.21a8.83 8.83 0 0 1 1.51-2.83 51.35 51.35 0 0 0 7.31-6.87 98 98 0 0 0 7-8.76c2.14-3.027 4.05-5.903 5.73-8.63 1.68-2.727 2.897-4.847 3.65-6.36a12.25 12.25 0 0 1-2.14-7.06 16.11 16.11 0 0 1 3.09-9.26 10.6 10.6 0 0 1 7.75-4.6 11 11 0 0 0 .76 3.34 7.41 7.41 0 0 0 2.7 3.06 33.84 33.84 0 0 0 6.17 3.21c2.667 1.133 6.28 2.413 10.84 3.84A21.68 21.68 0 0 1 862 74c1.387 1.007 2.08 2.73 2.08 5.17a41.33 41.33 0 0 1-3.28 7.43A214.404 214.404 0 0 1 856 95a312.401 312.401 0 0 0-4.66 8 26.72 26.72 0 0 0-2.77 6.49 1.67 1.67 0 0 0 .63 1.39c.39.325.882.502 1.39.5a6.58 6.58 0 0 0 2.65-1.13 50.46 50.46 0 0 0 4.66-3.28 76.29 76.29 0 0 0 6.11-5.35 173.158 173.158 0 0 0 6.99-7.29z" fill="#C02D28"/><path d="M879.43 80.6a24 24 0 0 1 2.27-6.87 23.58 23.58 0 0 1 3.84-5.54 17.68 17.68 0 0 1 4.79-3.65 11.36 11.36 0 0 1 5.23-1.32 6.55 6.55 0 0 1 4.54 1.7 8 8 0 0 1 2.39 4.85 17.46 17.46 0 0 1-2.39 3.53 58.856 58.856 0 0 1-3.28 3.53 19 19 0 0 0 1.64 5.67c.92 2.1 1.887 4.347 2.9 6.74a76.34 76.34 0 0 1 2.71 7.56 28.44 28.44 0 0 1 1.2 8.25 15.38 15.38 0 0 1-2.77 8.51 33.2 33.2 0 0 1-7 7.62 37.47 37.47 0 0 1-9.26 5.48 25.13 25.13 0 0 1-9.58 2.08 28.68 28.68 0 0 1-8.38-1.13 24 24 0 0 1-6.36-2.9 13.89 13.89 0 0 1-4.1-4 8.38 8.38 0 0 1-1.45-4.54 18.64 18.64 0 0 1 .95-6 21.28 21.28 0 0 1 3.21-5.8c.667-.84 1.76-2.12 3.28-3.84a247.31 247.31 0 0 0 5-5.86c1.807-2.18 3.677-4.49 5.61-6.93a80.51 80.51 0 0 0 5.01-7.14zm2.39 10.71c-.84 1.18-1.91 2.513-3.21 4a339.977 339.977 0 0 1-4.22 4.73 311.097 311.097 0 0 1-4.72 5 1420.41 1420.41 0 0 0-4.6 4.79 23.62 23.62 0 0 0 6.68 6 14.13 14.13 0 0 0 7.18 2.14 7.14 7.14 0 0 0 5.23-2.2c1.467-1.467 2.203-3.673 2.21-6.62a22.13 22.13 0 0 0-.5-4.54 46.49 46.49 0 0 0-1.26-4.72 403.212 403.212 0 0 0-1.51-4.54 85.09 85.09 0 0 1-1.27-4.04h-.01zm-258.65-68.9c-2.88 7.527-5.603 15.607-8.17 24.24a361.06 361.06 0 0 0-6.6 25.48c-1.88 8.36-3.403 16.327-4.57 23.9a130.91 130.91 0 0 0-1.74 19.34A21.59 21.59 0 0 0 603 122a7.92 7.92 0 0 0 2.74 4.15 16.13 16.13 0 0 1-7.06 5.23 23.53 23.53 0 0 1-8.71 1.74 15.46 15.46 0 0 1-10.62-3.82c-2.9-2.533-4.35-6.843-4.35-12.93a70.2 70.2 0 0 1 .83-9.21c.553-3.927 1.357-8.38 2.41-13.36A492.25 492.25 0 0 1 582 77.52a604.645 604.645 0 0 1 4.65-17.76 4.24 4.24 0 0 0-1.41.17 2.43 2.43 0 0 0-.91.83l-40.67 62.08a40.8 40.8 0 0 1-12.95 2.49 14.7 14.7 0 0 1-7-1.58 9.15 9.15 0 0 1-4.32-5.39c.333-2.987.637-6.32.91-10 .273-3.68.55-7.497.83-11.45.273-3.927.523-7.883.75-11.87.227-3.987.393-7.86.5-11.62.107-2.213.163-4.26.17-6.14v-5.86a4.28 4.28 0 0 0-.41-1.66 1.32 1.32 0 0 0-1.08-.33c-8.967 16.16-16.74 29.743-23.32 40.75a307.26 307.26 0 0 1-17.51 26.64c-5.093 6.747-9.687 11.59-13.78 14.53-4.093 2.94-8.093 4.407-12 4.4a14.44 14.44 0 0 1-11-4.73c-2.933-3.153-4.953-7.443-6.06-12.87a6.42 6.42 0 0 0 2.32.33c4.667 0 9.233-1.963 13.7-5.89a94.86 94.86 0 0 0 13.69-15.44c4.667-6.36 9.453-13.61 14.36-21.75a711.111 711.111 0 0 1 15.69-24.82 49.46 49.46 0 0 1 7.55-9.38 11.62 11.62 0 0 1 8.05-3.07 24.44 24.44 0 0 1 5.81.83 1.87 1.87 0 0 0 2.16-1.83c-.773-8.967-3.483-15.827-8.13-20.58-4.647-4.753-11.23-7.133-19.75-7.14a40.83 40.83 0 0 0-19.59 4.9 53.34 53.34 0 0 0-15.85 12.95 64 64 0 0 0-14.52 40.59c0 5.093 1.55 8.427 4.65 10a20.59 20.59 0 0 1-6.81 6 17.5 17.5 0 0 1-8.47 2.16 15.69 15.69 0 0 1-11.21-4.32c-3.047-2.873-4.567-7.467-4.56-13.78a61.76 61.76 0 0 1 3.4-20.42 79.43 79.43 0 0 1 9.3-18.51 85.56 85.56 0 0 1 13.86-15.85 96.91 96.91 0 0 1 17.1-12.28 87.75 87.75 0 0 1 19-8A71.34 71.34 0 0 1 498.84 0c16.267 0 28.497 5.037 36.69 15.11 8.193 10.073 12.287 25.787 12.28 47.14 0 1.553-.027 3.6-.08 6.14-.053 2.54-.137 5.14-.25 7.8-.113 2.667-.223 5.13-.33 7.39-.107 2.26-.217 3.893-.33 4.9a4.18 4.18 0 0 0 1.41-.17 1.6 1.6 0 0 0 .75-.83l43.66-63.74c1.333-2.213 2.55-3.32 3.65-3.32.33 0 .8 0 1.41-.08a6.49 6.49 0 0 0 1.41-.25c1.66-1.88 4.207-2.82 7.64-2.82a28.08 28.08 0 0 1 7.47 1.16 38.71 38.71 0 0 1 8.95 3.98z" fill="#C02D28"/><path d="M56.57 27.42a4.28 4.28 0 0 0-.41-1.66 1.32 1.32 0 0 0-1.08-.33c-8.967 16.16-16.74 29.743-23.32 40.75a307.26 307.26 0 0 1-17.51 26.64C9.16 99.57-3.51 79.51 1.14 73.15c4.65-6.36 9.43-13.61 14.36-21.75a773.02 773.02 0 0 1 15.68-24.81 49.46 49.46 0 0 1 7.55-9.38 11.62 11.62 0 0 1 8.05-3.07 24.44 24.44 0 0 1 5.81.83 1.87 1.87 0 0 0 2.16-1.83 43.94 43.94 0 0 0-1.94-10c-.47-1.44-.86-2.31-1-2.72 3.25 6.62 4.5 15.63 4.76 21.58.04 1.57 0 5.42 0 5.42z" opacity=".4" transform="translate(466 34)" fill="url(#a)"/><path d="M599.1 20.09c-1.54 2.7-9.15 29.8-12.45 39.67A3.31 3.31 0 0 0 585 60c-5 3.5-18.94 6.43-21.14 5.62C569 58.35 587.62 31 592.63 23.74c.32-.52 1.83-3.29 3.65-3.32.12 0 .43 0 1.19-.06a7.49 7.49 0 0 0 1.63-.27z" fill="url(#b)" opacity=".41"/></g></svg>