<svg width="225" height="74" viewBox="0 0 225 74" xmlns="http://www.w3.org/2000/svg"><title>Page 1</title><g fill="none" fill-rule="evenodd"><path d="M10.236 73.83s-14.43-18.666-9.024-18.666h10.787V.275h20.508v62.373c0 6.995-4.161 11.19-11.134 11.226h-.018l-11.12-.044z" fill="#0099A3"/><path d="M41.824 59.478c-6.983 0-11.152-4.172-11.152-11.156V37.525c0-2.349.556-4.352 1.605-5.944h-1.605V12.874h34.98c6.715 0 10.722 4.168 10.722 11.153v35.451h-34.55zm94.13 14.396V12.873h34.55c6.986 0 11.154 4.182 11.154 11.191v24.258c-.037 6.992-4.22 11.156-11.19 11.156h-14.003v14.396h-20.511z" fill="#0099A3"/><path d="M179.146 73.874V12.873h34.549c6.984 0 11.154 4.182 11.154 11.191v24.258c-.036 6.992-4.219 11.156-11.189 11.156h-14.006v14.396h-20.508z" fill="#0099A3"/><path d="M15.952 13.229h12.599V4.231H15.952v8.998zm12.599 3.529v45.89c0 4.825-2.399 7.247-7.2 7.271l-8.998-.036L5.154 59.12h7.199c2.399 0 3.6-1.21 3.6-3.636V16.758h12.598zM59.82 39.725H49.023c-1.198 0-1.8 1.07-1.8 3.2s.3 3.196.9 3.196H59.82v-6.396zm12.6 15.797H41.825c-4.798 0-7.2-2.4-7.2-7.2V37.527c0-4.197 2.402-6.3 7.2-6.3H59.82c0-2.397-1.197-5.235-3.597-5.235H34.625V16.83h31.027c4.512 0 6.769 2.402 6.769 7.199v31.494zm89.085-27.897h-8.999v17.098h8.964c2.397 0 3.612-1.2 3.635-3.6v-9.861c0-2.425-1.2-3.637-3.6-3.637m16.198-3.561v24.258c-.025 4.801-2.438 7.199-7.236 7.199h-17.96v14.398h-12.599V16.828h30.596c4.8 0 7.2 2.412 7.2 7.236m26.994 3.561h-9v17.098h8.963c2.398 0 3.613-1.2 3.637-3.6v-9.861c0-2.425-1.202-3.637-3.6-3.637m16.195-3.561v24.258c-.024 4.801-2.435 7.199-7.233 7.199h-17.962v14.398H183.1V16.828h30.594c4.8 0 7.198 2.412 7.198 7.236" fill="#FEFEFE"/><path d="M127.311 0H74.76l.044 46.604h20.469v-.007h1.094v.007h20.502v-.007h1.088v.007h20.508V11.135C138.428 4.162 134.258 0 127.311 0" fill="#0099A3"/><path d="M127.311 3.955c4.774 0 7.173 2.401 7.199 7.2v31.493h-12.597V18.351c0-2.398-1.214-3.598-3.637-3.598h-5.362v27.895h-12.598l-.037-27.895h-8.96v27.895H78.754L78.72 3.955h48.591z" fill="#FEFEFE"/></g></svg>