<svg xmlns="http://www.w3.org/2000/svg" width="565.472" height="566.971" viewBox="0 0 565.472 566.971"><linearGradient id="a" gradientUnits="userSpaceOnUse" x1="116.48" y1="215.597" x2="488.98" y2="196.972"><stop offset="0" stop-color="#262626"/><stop offset="1" stop-color="#0d0d0d"/></linearGradient><path fill="url(#a)" d="M340.062 133.302h-.015c-10.657 0-19.845 6.1-24.332 15.018l-36.594 70.698a36.446 36.446 0 0 0-18.464-16.055c8.779-6.342 14.496-16.688 14.496-28.361 0-13.521-7.682-25.236-18.919-31.038-9.895-5.213-21.19-8.15-33.168-8.15h-54.723c-11.262 0-20.351 9.1-20.351 20.336v101.847c0 11.228 9.089 20.333 20.351 20.333h59.183a81.434 81.434 0 0 0 32.13-6.583l3.755-1.812c.211-.102.412-.212.611-.317 3.558 5.896 10.008 9.861 17.414 9.861 8.231 0 15.33-4.888 18.525-11.941a10.825 10.825 0 0 1 9.436-6.558h61.328c4.251.202 7.838 2.839 9.437 6.558a20.316 20.316 0 0 0 18.526 11.941c11.244 0 20.331-9.117 20.331-20.318 0-3.646-.938-7.063-2.629-10.003L364.405 148.32c-4.483-8.918-13.672-15.018-24.33-15.018h-.013z"/><linearGradient id="b" gradientUnits="userSpaceOnUse" x1="124.645" y1="378.943" x2="497.151" y2="360.317"><stop offset="0" stop-color="#262626"/><stop offset="1" stop-color="#0d0d0d"/></linearGradient><path fill="url(#b)" d="M171.794 411.763h55.496v19.786h-76.891V319.915h21.395v91.848z"/><linearGradient id="c" gradientUnits="userSpaceOnUse" x1="125.581" y1="397.556" x2="498.072" y2="378.932"><stop offset="0" stop-color="#262626"/><stop offset="1" stop-color="#0d0d0d"/></linearGradient><path fill="url(#c)" d="M315.114 431.549h-20.267v-8.847c-6.434 6.755-15.281 10.614-25.416 10.614-21.553 0-39.407-18.658-39.407-43.108 0-24.61 17.854-43.269 39.407-43.269 10.135 0 18.982 3.858 25.416 10.614v-8.847h20.267v82.843zm-42.465-64.985c-11.742 0-21.231 10.294-21.231 23.804 0 13.192 9.489 23.325 21.231 23.325s21.233-10.456 21.233-23.325c.001-13.19-9.49-23.804-21.233-23.804z"/><linearGradient id="d" gradientUnits="userSpaceOnUse" x1="124.907" y1="384.09" x2="497.405" y2="365.465"><stop offset="0" stop-color="#262626"/><stop offset="1" stop-color="#0d0d0d"/></linearGradient><path fill="url(#d)" d="M377.202 433.317c-9.972 0-18.818-3.859-25.254-10.614v8.847H331.52V311.87h21.394v44.719c6.274-6.111 14.798-9.648 24.288-9.648 21.717 0 39.41 18.658 39.41 43.269 0 24.449-17.693 43.107-39.41 43.107zm-3.056-66.753c-11.74 0-21.231 10.614-21.231 23.804 0 12.869 9.491 23.325 21.231 23.325 11.744 0 21.234-10.133 21.234-23.325 0-13.51-9.49-23.804-21.234-23.804z"/><linearGradient id="e" gradientUnits="userSpaceOnUse" x1="14.195" y1="283.31" x2="552.817" y2="283.31"><stop offset="0" stop-color="#fbd20a"/><stop offset="1" stop-color="#00bbf0"/></linearGradient><path fill="url(#e)" d="M473.938 92.878c-50.866-50.866-118.496-78.879-190.432-78.879S143.94 42.012 93.074 92.878C42.209 143.744 14.195 211.374 14.195 283.31c0 71.936 28.014 139.565 78.879 190.432 50.867 50.867 118.496 78.88 190.432 78.88s139.564-28.013 190.432-78.88c50.867-50.866 78.88-118.497 78.88-190.432-.001-71.935-28.013-139.565-78.88-190.432zM283.506 535.664c-67.407 0-130.779-26.249-178.44-73.911-47.664-47.664-73.914-111.036-73.914-178.443 0-67.407 26.25-130.778 73.913-178.441 47.662-47.663 111.034-73.913 178.44-73.913s130.779 26.25 178.442 73.913S535.86 215.904 535.86 283.31s-26.249 130.778-73.912 178.441-111.035 73.913-178.442 73.913z"/></svg>