<svg xmlns="http://www.w3.org/2000/svg" viewBox="0 0 236.769 60.009"><path d="M86.705 28.355C86.705 12.734 67.297 0 43.354 0 19.413 0 .005 12.734.005 28.355c0 .403-.005 1.519-.005 1.66 0 16.572 16.964 29.993 43.349 29.993 26.548 0 43.357-13.418 43.357-29.99l-.001-1.663z" fill="#060e9f"/><ellipse cx="43.362" cy="28.341" rx="41.683" ry="26.666" fill="#ffd100"/><g fill="#fff"><path d="M29.522 19.928c-.022.042-.438.472-.168.818.658.84 2.689 1.322 4.744.862 1.223-.275 2.791-1.522 4.311-2.727 1.646-1.308 3.279-2.618 4.921-3.138 1.738-.553 2.852-.316 3.588-.093.807.241 1.756.772 3.271 1.908 2.852 2.144 14.321 12.154 16.302 13.885 1.596-.721 8.689-3.774 18.327-5.899-.837-5.139-3.963-9.839-8.703-13.689-6.607 2.775-14.681 4.223-22.576.367-.04-.016-4.314-2.039-8.528-1.939-6.264.145-8.979 2.857-11.85 5.727l-3.639 3.918z"/><path d="M66.024 32.531c-.134-.12-13.485-11.801-16.509-14.075-1.75-1.312-2.724-1.647-3.746-1.778-.532-.069-1.267.03-1.781.171-1.407.383-3.247 1.613-4.88 2.908-1.691 1.347-3.286 2.616-4.765 2.947-1.891.424-4.199-.076-5.252-.789-.427-.287-.727-.618-.871-.956-.389-.902.329-1.623.446-1.744l3.684-3.985c.428-.427.86-.855 1.301-1.276-1.189.155-2.288.459-3.357.756-1.335.376-2.619.732-3.918.732-.542 0-3.448-.476-3.999-.626-3.334-.912-6.26-1.801-10.631-3.842-5.237 3.899-8.74 8.774-9.752 14.144.753.199 1.965.56 2.474.673 11.853 2.635 15.544 5.35 16.213 5.917a3.938 3.938 0 0 1 2.938-1.317 3.943 3.943 0 0 1 3.212 1.679 4.479 4.479 0 0 1 2.825-.993c.549 0 1.119.102 1.695.298 1.337.459 2.027 1.349 2.385 2.155.449-.202 1-.352 1.65-.35.638 0 1.302.146 1.971.435 2.185.938 2.526 3.084 2.327 4.703.156-.018.312-.026.472-.026a4.704 4.704 0 0 1 4.697 4.7c0 .802-.205 1.556-.562 2.219.705.396 2.502 1.293 4.08 1.093 1.261-.159 1.739-.59 1.911-.832.117-.167.241-.362.126-.501l-3.344-3.715s-.551-.521-.369-.721c.189-.206.529.09.77.291 1.702 1.422 3.781 3.566 3.781 3.566.035.023.173.295.941.433.662.118 1.832.049 2.643-.617.205-.168.409-.378.58-.595-.013.01-.024.025-.037.03.855-1.094-.095-2.202-.095-2.202l-3.904-4.384s-.559-.516-.369-.724c.17-.18.529.092.774.295 1.236 1.034 2.983 2.786 4.657 4.426.327.239 1.798 1.15 3.746-.131 1.182-.775 1.42-1.728 1.386-2.447-.082-.951-.825-1.629-.825-1.629l-5.334-5.362s-.563-.481-.364-.725c.163-.205.529.09.768.291 1.7 1.422 6.299 5.638 6.299 5.638.065.046 1.655 1.178 3.618-.073.702-.449 1.151-1.126 1.189-1.911.068-1.364-.895-2.174-.895-2.174z"/><path d="M40.155 39.328c-.827-.01-1.731.481-1.849.41-.066-.043.051-.376.128-.567.08-.19 1.169-3.467-1.486-4.605-2.031-.873-3.273.109-3.7.553-.112.116-.162.107-.175-.041-.041-.59-.305-2.186-2.059-2.721-2.506-.767-4.117.982-4.526 1.613a2.899 2.899 0 0 0-2.869-2.538 2.91 2.91 0 0 0-.003 5.816 2.883 2.883 0 0 0 2.011-.812c.017.015.023.043.015.098-.122.719-.348 3.333 2.39 4.398 1.098.426 2.032.109 2.806-.434.23-.163.268-.094.235.123-.098.672.026 2.112 2.045 2.93 1.536.624 2.444-.015 3.039-.565.259-.237.33-.198.343.167.073 1.945 1.689 3.49 3.652 3.492a3.655 3.655 0 0 0 3.662-3.654c.001-2.023-1.637-3.641-3.659-3.663z"/></g><path d="M66.54 31.133c-4.112-3.589-13.617-11.852-16.191-13.784-1.47-1.106-2.474-1.691-3.354-1.953a5.518 5.518 0 0 0-1.648-.256c-.654 0-1.358.118-2.092.352-1.664.526-3.321 1.844-4.924 3.118l-.082.065c-1.493 1.187-3.036 2.415-4.204 2.676a7.091 7.091 0 0 1-1.557.174c-1.308-.002-2.484-.379-2.924-.941-.073-.093-.026-.243.144-.46l.023-.029 3.618-3.899c2.833-2.833 5.51-5.509 11.671-5.65.101-.003.206-.005.307-.005 3.835.002 7.668 1.719 8.098 1.918 3.596 1.754 7.307 2.645 11.038 2.648 3.888.001 7.9-.961 12.118-2.904a33.648 33.648 0 0 0-1.465-1.16c-3.705 1.606-7.236 2.418-10.642 2.417-3.479-.003-6.955-.839-10.329-2.485-.178-.085-4.411-2.081-8.816-2.083-.115 0-.232.002-.348.004-5.175.121-8.09 1.959-10.05 3.569-1.906.046-3.551.506-5.015.915-1.306.363-2.433.678-3.533.677-.453 0-1.269-.041-1.342-.044-1.265-.038-7.638-1.601-12.707-3.521-.517.367-1.015.745-1.5 1.13 5.295 2.171 11.739 3.851 13.774 3.982.566.037 1.169.101 1.772.102 1.345 0 2.688-.377 3.988-.741.768-.216 1.615-.45 2.505-.621-.238.234-.475.47-.713.709l-3.676 3.976c-.289.292-.918 1.072-.503 2.031.164.387.499.757.966 1.073.876.59 2.444.989 3.901.99a7.077 7.077 0 0 0 1.557-.163c1.541-.346 3.156-1.633 4.869-2.994 1.364-1.084 3.303-2.46 4.786-2.864a5.45 5.45 0 0 1 1.333-.183c.123.001.238.005.345.02.981.124 1.928.458 3.621 1.728 3.017 2.266 16.369 13.947 16.5 14.062.009.007.861.742.801 1.963-.032.681-.41 1.286-1.067 1.705-.57.362-1.158.546-1.753.546a2.895 2.895 0 0 1-1.547-.448c-.049-.04-4.624-4.235-6.307-5.644-.268-.222-.529-.422-.792-.422a.433.433 0 0 0-.349.165c-.265.326.032.778.381 1.076l5.344 5.371c.007.005.666.623.738 1.447.042.89-.384 1.635-1.269 2.215-.631.415-1.269.626-1.894.626a2.76 2.76 0 0 1-1.524-.462l-.767-.756c-1.401-1.378-2.847-2.804-3.906-3.687-.258-.215-.534-.413-.796-.413a.453.453 0 0 0-.337.143c-.121.134-.205.376.096.776.124.165.27.301.27.301l3.899 4.38c.032.039.804.956.088 1.869l-.138.175a3.918 3.918 0 0 1-.362.349c-.665.546-1.554.604-1.906.604-.188 0-.37-.016-.527-.045-.385-.069-.643-.176-.768-.324l-.047-.049c-.213-.22-2.179-2.227-3.806-3.584-.214-.18-.481-.406-.758-.406a.465.465 0 0 0-.352.157c-.322.352.161.879.366 1.073l3.326 3.668c-.004.032-.046.108-.126.224-.119.165-.523.568-1.729.72-.145.02-.294.027-.442.027-1.244 0-2.571-.604-3.255-.967a4.94 4.94 0 0 0 .473-2.108 4.967 4.967 0 0 0-5.138-4.962c.089-1.25-.087-3.616-2.516-4.658-.699-.303-1.397-.457-2.074-.457-.53 0-1.04.091-1.52.275-.503-.978-1.339-1.691-2.429-2.062a5.43 5.43 0 0 0-1.78-.314 4.692 4.692 0 0 0-2.773.889 4.201 4.201 0 0 0-3.264-1.576 4.217 4.217 0 0 0-2.963 1.225c-1.035-.79-5.142-3.399-16.133-5.895-.533-.12-1.754-.471-2.502-.69a17.642 17.642 0 0 0-.281 1.803s2.027.485 2.426.575c11.228 2.494 14.938 5.087 15.565 5.577a4.218 4.218 0 0 0-.324 1.615 4.213 4.213 0 0 0 4.978 4.14c.349 1.707 1.467 3.001 3.174 3.665.499.192 1.004.29 1.499.29.321.001.643-.04.958-.12.315.801 1.024 1.799 2.61 2.443a4.427 4.427 0 0 0 1.653.341 3.7 3.7 0 0 0 1.285-.229 4.952 4.952 0 0 0 8.14 1.571c.801.445 2.492 1.251 4.2 1.253.221 0 .429-.016.636-.04 1.697-.215 2.486-.878 2.849-1.394.065-.09.124-.185.174-.285a4.82 4.82 0 0 0 1.345.21c.927 0 1.816-.316 2.715-.971.883-.637 1.511-1.551 1.601-2.329a.307.307 0 0 0 .005-.034c.298.062.603.093.908.093.954 0 1.892-.298 2.789-.885 1.73-1.134 2.03-2.615 2.002-3.585.302.063.612.096.919.096.896 0 1.775-.27 2.613-.804 1.072-.685 1.717-1.734 1.815-2.955a3.987 3.987 0 0 0-.576-2.387c2.898-1.248 9.521-3.665 17.32-5.422a17.748 17.748 0 0 0-.242-1.797c-9.436 2.096-16.477 5.144-18.241 5.929zM40.155 46.384a3.372 3.372 0 0 1-3.39-3.241c-.005-.155-.021-.569-.371-.569-.144 0-.269.087-.413.217-.402.373-.916.753-1.666.753-.34 0-.708-.079-1.097-.238-1.935-.784-1.962-2.113-1.883-2.647.021-.143.029-.291-.07-.406l-.119-.107h-.12c-.098 0-.2.04-.337.137-.56.393-1.097.584-1.643.584-.3 0-.609-.06-.917-.179-2.548-.992-2.347-3.396-2.223-4.12.019-.146-.018-.26-.111-.336l-.18-.148-.168.161a2.623 2.623 0 0 1-1.829.741 2.65 2.65 0 0 1-2.646-2.647 2.648 2.648 0 0 1 2.649-2.643c1.318 0 2.442.992 2.61 2.309l.091.71.391-.601c.044-.07 1.113-1.687 3.078-1.685.374 0 .76.06 1.149.181 1.567.478 1.832 1.899 1.873 2.491.028.345.273.362.321.362.135 0 .235-.086.306-.16a2.669 2.669 0 0 1 1.948-.822c.461.002.952.111 1.459.329 2.49 1.068 1.361 4.233 1.347 4.266-.214.525-.223.756-.021.89l.098.047h.073c.113 0 .252-.049.482-.127.339-.117.851-.293 1.329-.292h.001c1.875.02 3.4 1.546 3.399 3.399a3.401 3.401 0 0 1-3.4 3.391zm194.266-36.095c-1.564-1.961-3.94-2.941-7.127-2.941-3.184 0-5.56.979-7.124 2.941-1.566 1.959-2.349 4.276-2.349 6.948 0 2.72.783 5.045 2.349 6.98 1.564 1.928 3.94 2.896 7.124 2.896 3.188 0 5.563-.968 7.127-2.896 1.566-1.935 2.347-4.26 2.347-6.98.001-2.672-.781-4.989-2.347-6.948zm-3.877 11.246c-.76 1.008-1.845 1.512-3.266 1.512-1.417 0-2.508-.504-3.274-1.512-.766-1.007-1.147-2.441-1.147-4.298 0-1.855.381-3.285 1.147-4.287.765-1.002 1.857-1.503 3.274-1.503 1.42 0 2.506.501 3.266 1.503.758 1.002 1.139 2.432 1.139 4.287.001 1.858-.381 3.291-1.139 4.298zM194.432 8.649c-1.586-.804-3.403-1.211-5.447-1.211-3.141 0-5.359.82-6.649 2.457-.812 1.048-1.267 2.384-1.373 4.01h4.694c.115-.718.346-1.286.692-1.706.484-.568 1.307-.853 2.47-.853 1.04 0 1.826.143 2.364.436.534.289.804.816.804 1.577 0 .627-.348 1.085-1.049 1.383-.39.171-1.037.313-1.945.426l-1.664.205c-1.89.238-3.325.638-4.296 1.196-1.778 1.024-2.665 2.677-2.665 4.964 0 1.761.549 3.125 1.656 4.086 1.101.961 2.504 1.364 4.196 1.443 10.615.474 10.494-5.594 10.592-6.855v-6.984c.001-2.24-.794-3.765-2.38-4.574zm-2.465 10.597c-.032 1.626-.499 2.747-1.394 3.361a5.074 5.074 0 0 1-2.934.923c-.672 0-1.24-.187-1.709-.556-.467-.37-.7-.97-.7-1.801 0-.932.381-1.619 1.147-2.064.456-.26 1.198-.485 2.236-.663l1.109-.206c.551-.105.986-.217 1.303-.337.321-.117.631-.271.942-.467v1.81zm-21.738-7.647c1.214 0 2.104.374 2.68 1.123a4.15 4.15 0 0 1 .737 1.872h5.236c-.287-2.641-1.212-4.485-2.772-5.53-1.565-1.04-3.571-1.565-6.022-1.565-2.884 0-5.149.886-6.785 2.654-1.64 1.77-2.46 4.245-2.46 7.425 0 2.816.742 5.112 2.225 6.881 1.484 1.768 3.799 2.653 6.944 2.653 3.149 0 5.527-1.061 7.128-3.182 1.005-1.314 1.568-2.71 1.686-4.185h-5.218c-.106.975-.41 1.77-.916 2.383-.503.61-1.351.918-2.552.918-1.69 0-2.84-.77-3.452-2.315-.334-.824-.504-1.915-.504-3.272 0-1.424.169-2.566.504-3.429.637-1.619 1.818-2.431 3.541-2.431zm-10.789-4.1c-10.755 0-10.119 9.523-10.119 9.523v9.673h4.881v-9.073c0-1.486.188-2.587.56-3.303.67-1.268 1.978-1.905 3.93-1.905a13.825 13.825 0 0 1 1.397.088V7.536c-.217-.015-.357-.021-.418-.027a2.85 2.85 0 0 0-.231-.01zm-17.928 14.142a3.555 3.555 0 0 1-.668.738c-.689.568-1.625.74-2.728.74-1.043 0-1.859-.158-2.598-.624-1.218-.748-1.903-2.015-1.976-3.874h13.504c.019-1.6-.033-2.826-.162-3.679-.224-1.452-.718-2.732-1.476-3.834-.842-1.249-1.914-2.163-3.205-2.744-1.292-.576-2.744-.866-4.357-.866-2.719 0-4.927.857-6.63 2.569-1.702 1.716-2.557 4.176-2.557 7.388 0 3.429.944 5.903 2.832 7.423 1.885 1.52 4.065 2.282 6.53 2.282 2.988 0 5.314-.901 6.974-2.705.896-.949 1.457-1.888 1.694-2.814h-5.177zm-6.561-9.087c.687-.705 1.651-1.059 2.894-1.059 1.145 0 2.102.332 2.877 1 .77.665 1.202 1.644 1.289 2.928h-8.351c.175-1.207.607-2.162 1.291-2.869zm-8.253 14.139h-4.458V15.468c0-1.026-.338-3.465-3.279-3.465-1.961 0-3.379 1.414-3.379 3.465v11.226h-4.462V15.468c0-1.026-.304-3.465-3.243-3.465-1.995 0-3.381 1.414-3.381 3.465v11.226h-4.461V15.575c0-4.635 3.074-8.14 7.842-8.14 2.366 0 4.291.994 5.543 2.586 1.317-1.592 3.276-2.586 5.542-2.586 4.867 0 7.737 3.363 7.737 8.14v11.118zm89.671-25.056s-4.916-.525-4.916 3.424l-.004 5.228a5.873 5.873 0 0 0-2.125-2.049c-.871-.493-1.869-.741-2.994-.741-2.438 0-4.381.908-5.84 2.722-1.459 1.816-2.184 4.431-2.184 7.594 0 2.744.739 4.995 2.219 6.747 1.479 1.75 4.381 2.518 6.958 2.518 8.987 0 8.883-7.707 8.883-7.707l.003-17.736zm-5.854 19.939c-.712 1.021-1.759 1.531-3.129 1.531-1.375 0-2.397-.515-3.07-1.54-.674-1.028-1.01-2.523-1.01-4.234 0-1.588.329-2.918.993-3.989.662-1.07 1.701-1.608 3.119-1.608.931 0 1.746.295 2.451.884 1.145.976 1.717 2.726 1.717 4.992.002 1.622-.356 2.943-1.071 3.964zm-14.658 28.442a3.525 3.525 0 0 1-.662.732c-.685.562-1.649.771-2.741.771-1.032 0-1.841-.156-2.573-.618-1.208-.742-1.849-2.033-1.923-3.878h13.386c.017-1.585-.034-2.802-.163-3.646-.224-1.44-.712-2.709-1.462-3.801-.837-1.239-1.897-2.144-3.176-2.719-1.281-.573-2.721-.859-4.32-.859-2.696 0-4.882.848-6.572 2.546-1.686 1.701-2.533 4.139-2.533 7.323 0 3.398.934 5.852 2.807 7.358 1.869 1.508 4.029 2.262 6.473 2.262 2.961 0 5.266-.894 6.91-2.682.889-.94 1.445-1.87 1.681-2.789h-5.132zm-6.502-9.008c.681-.699 1.636-1.05 2.867-1.05 1.134 0 2.084.329 2.85.992.766.659 1.193 1.628 1.281 2.902h-8.279c.176-1.196.603-2.143 1.281-2.844zm-27.038-4.971c-1.123 0-2.121.245-2.994.738a5.882 5.882 0 0 0-2.127 2.05v-8.78s-4.915-.487-4.915 3.507v14.227s-.102 7.709 8.884 7.709c2.577 0 5.479-.771 6.96-2.521 1.478-1.752 2.217-3.999 2.217-6.744 0-3.163-.728-5.652-2.186-7.465-1.453-1.816-3.401-2.721-5.839-2.721zm2.016 13.938c-.677 1.025-1.697 1.538-3.07 1.538-1.373 0-2.418-.507-3.132-1.53-.713-1.02-1.07-2.34-1.07-3.964 0-2.266.573-3.887 1.717-4.864a3.717 3.717 0 0 1 2.449-.884c1.419 0 2.46.536 3.122 1.608.664 1.07.997 2.4.997 3.986-.001 1.713-.338 3.083-1.013 4.11zm17.852-13.96a3.576 3.576 0 0 0-.229-.007c-10.757 0-10.121 9.522-10.121 9.522v9.522h4.882V46.13c0-1.487.187-2.588.563-3.302.666-1.268 1.977-1.906 3.928-1.906.15 0 .34.007.577.019.24.011.512.032.818.067v-4.964c-.216-.014-.356-.021-.418-.027zm-46.729-2.478v21.479h4.58V30.037s-4.58-.185-4.58 3.502zm8.323-3.537h4.903v4.855h-4.903zm0 6.513h4.912v18.538h-4.912z" fill="#060e9f"/></svg>