<svg width="100" height="100" viewBox="0 0 100 100" xmlns="http://www.w3.org/2000/svg" xmlns:xlink="http://www.w3.org/1999/xlink"><defs><path id="a" d="M.06.096h99.939V100H.06z"/></defs><g fill="none" fill-rule="evenodd"><circle fill="#FFF" fill-rule="nonzero" cx="50" cy="50" r="49"/><mask id="b" fill="#fff"><use xlink:href="#a"/></mask><path d="M47.561 1.683c-9.32.415-18.476 3.678-26.012 9.167-6.084 4.417-11.137 10.256-14.594 16.935C2.747 35.819.92 45.061 1.694 54.092c.717 8.973 4.057 17.708 9.462 24.902a48.803 48.803 0 0 0 12.978 12.001 48.295 48.295 0 0 0 19.295 7.042c7.403.998 15.041.301 22.116-2.114C76.818 92.14 86.547 84.02 92.331 73.631a47.948 47.948 0 0 0 5.886-18.598c.627-5.883.13-11.879-1.404-17.591a48.412 48.412 0 0 0-9.774-18.612A48.733 48.733 0 0 0 73.107 7.478c-7.763-4.234-16.714-6.283-25.546-5.795zM48.645.118c9.762-.296 19.588 2.376 27.852 7.583 9.863 6.153 17.482 15.834 21.056 26.905a49.9 49.9 0 0 1 2.255 19.783 49.585 49.585 0 0 1-5.612 18.994c-5.679 10.77-15.427 19.321-26.859 23.516a49.928 49.928 0 0 1-21.945 2.887 49.679 49.679 0 0 1-18.673-5.54 50.262 50.262 0 0 1-14.603-11.637C6.885 76.562 3.133 69.237 1.317 61.448a49.982 49.982 0 0 1 .621-25.18 49.64 49.64 0 0 1 7.753-15.746A50.26 50.26 0 0 1 25.255 6.65 49.655 49.655 0 0 1 48.645.118z" fill="#201F1E" mask="url(#b)"/><path d="M40.97 26.654c1.338-.168 2.695-.03 4.041-.074.83.035 1.699-.116 2.501.162.829.314 1.41 1.172 1.37 2.06 0 6.388.006 12.777-.004 19.164.018.597-.105 1.294.336 1.778.272.336.745.316 1.137.331 2.461-.006 4.921 0 7.38-.006 1.291-.151 2.517.985 2.417 2.291-.007 1.412.026 2.826-.015 4.238-.045 1.133-1.116 2.067-2.242 2-5.501-.005-11.004.012-16.503-.008-1.194.005-2.18-1.127-2.095-2.302.001-9.159-.003-18.316.003-27.474-.033-.995.702-1.95 1.674-2.16" fill="#9CAF3E"/><path d="M83.311 32.255c.895-.968 2.118-1.743 3.47-1.774.603-.036 1.181.16 1.749.341.541.995.666 2.178.365 3.269-.434 1.77-1.548 3.265-2.712 4.627-1.993 2.491-3.791 5.129-5.616 7.743-.378.574-.804 1.115-1.162 1.703-.208.21.037.433.138.62 3.76 5.508 7.491 11.035 11.246 16.546.709.991 1.46 2.107 1.377 3.381-.042.828-.723 1.438-1.438 1.745-2.281 1.041-4.758 1.539-7.21 1.993-1.628.316-3.273-.714-3.999-2.147-2.04-4.297-4.279-8.495-6.443-12.73-2.593 3.838-5.116 7.722-7.655 11.595-.478.705-1.118 1.32-1.9 1.676-.489.223-1.106.235-1.557-.084-.491-.344-.84-.84-1.204-1.307-.893-1.183-1.66-2.459-2.394-3.746-.692-1.145-.592-2.585-.204-3.816.349-1.102.984-2.091 1.753-2.947 2.9-3.299 5.788-6.611 8.696-9.906-1.978-3.869-4.019-7.709-6.035-11.561-.571-1.057-.762-2.288-.703-3.477.05-.942.493-1.922 1.346-2.391 1.236-.67 2.841-.83 4.091-.111.62.344 1.117.877 1.504 1.464 2.007 2.976 4.033 5.939 6.043 8.912 2.847-3.18 5.628-6.418 8.454-9.618" fill="#DB6E2F"/><path d="M19.96 37.875c-1.619.471-2.885 1.711-3.797 3.085-1.342 2.037-2.067 4.424-2.403 6.825-.479 3.548-.131 7.246 1.237 10.571.782 1.828 1.924 3.603 3.639 4.68 1.305.845 3.028 1.011 4.46.394 1.358-.581 2.431-1.672 3.235-2.89 1.33-2.019 2.049-4.383 2.393-6.761.492-3.593.143-7.351-1.264-10.711-.745-1.731-1.825-3.386-3.397-4.471-1.183-.804-2.717-1.162-4.103-.722zm-.463-6.1c3.109-.397 6.33.308 9.018 1.911 3.466 2.048 6.052 5.401 7.494 9.13 1.721 4.42 1.927 9.398.642 13.96-1.17 4.153-3.652 8.014-7.241 10.47a14.55 14.55 0 0 1-8.106 2.598c-3.056 0-6.085-1.022-8.548-2.825-3.731-2.704-6.211-6.913-7.201-11.376-1.159-5.141-.464-10.721 2.105-15.339 1.665-2.989 4.145-5.571 7.219-7.109a14.479 14.479 0 0 1 4.618-1.42z" fill="#563967"/></g></svg>