<svg xmlns="http://www.w3.org/2000/svg" width="565.472" height="341.984" viewBox="0 0 565.472 341.984"><linearGradient id="a" gradientUnits="userSpaceOnUse" x1="97.763" y1="147.966" x2="115.429" y2="147.966"><stop offset="0" stop-color="#262626"/><stop offset="1" stop-color="#0d0d0d"/></linearGradient><path fill="url(#a)" d="M115.429 131.97l-7.571 14.994 1.114 11.356s-4.083-3.859-4.752-4.527c-2.301 3.266-6.457 10.169-6.457 10.169l5.345-13.88.593-9.947 2.896 2.822 8.832-10.987z"/><linearGradient id="b" gradientUnits="userSpaceOnUse" x1="209.622" y1="130.151" x2="243.84" y2="130.151"><stop offset="0" stop-color="#262626"/><stop offset="1" stop-color="#0d0d0d"/></linearGradient><path fill="url(#b)" d="M243.84 113.859l-10.243 15.068 8.981 15.068-15.958-8.165-16.998 10.614 10.688-16.256-7.051-13.063 14.028 6.384z"/><linearGradient id="c" gradientUnits="userSpaceOnUse" x1="207.544" y1="171.903" x2="242.058" y2="171.903"><stop offset="0" stop-color="#262626"/><stop offset="1" stop-color="#0d0d0d"/></linearGradient><path fill="url(#c)" d="M225.282 165.149l-14.102-6.458s4.898 8.536 7.051 13.063c-3.562 5.419-7.348 10.615-10.688 16.255 5.789-3.414 16.996-10.614 16.996-10.614s8.24 4.454 11.877 6.458c1.484.817 4.156 1.707 4.156 1.707l-8.98-14.993 10.465-14.771-16.775 9.353z"/><linearGradient id="d" gradientUnits="userSpaceOnUse" x1="116.839" y1="183.632" x2="136.435" y2="183.632"><stop offset="0" stop-color="#262626"/><stop offset="1" stop-color="#0d0d0d"/></linearGradient><path fill="url(#d)" d="M116.839 198.922s5.418-6.087 8.461-7.867a2097.93 2097.93 0 0 1 7.498 4.824l-3.637-11.504 7.273-16.033-10.688 10.392-6.979-6.606 3.043 13.212-4.971 13.582z"/><linearGradient id="e" gradientUnits="userSpaceOnUse" x1="222.834" y1="19.221" x2="257.274" y2="19.221"><stop offset="0" stop-color="#262626"/><stop offset="1" stop-color="#0d0d0d"/></linearGradient><path fill="url(#e)" d="M257.274 12.541l-10.169 4.304 6.904 3.341-14.475-.298-16.7 6.013 11.802-6.68-4.899-1.634 11.431-1.039z"/><linearGradient id="f" gradientUnits="userSpaceOnUse" x1="185.722" y1="29.204" x2="217.86" y2="29.204"><stop offset="0" stop-color="#262626"/><stop offset="1" stop-color="#0d0d0d"/></linearGradient><path fill="url(#f)" d="M208.062 26.198l3.638 2.376-11.209 1.335-14.769 7.943 11.207-7.645-1.707-1.633 22.638-8.017z"/><linearGradient id="g" gradientUnits="userSpaceOnUse" x1="219.122" y1="61.9" x2="248.071" y2="61.9"><stop offset="0" stop-color="#262626"/><stop offset="1" stop-color="#0d0d0d"/></linearGradient><path fill="url(#g)" d="M239.534 59.896l6.533 6.162-12.322-2.45-14.623 6.68 10.022-8.388-4.678-4.23 10.467.742 13.138-4.899z"/><linearGradient id="h" gradientUnits="userSpaceOnUse" x1="175.7" y1="70.734" x2="203.164" y2="70.734"><stop offset="0" stop-color="#262626"/><stop offset="1" stop-color="#0d0d0d"/></linearGradient><path fill="url(#h)" d="M203.164 60.862l-8.981 7.644 3.414 5.197-9.279-1.039-12.618 7.942 9.427-9.13-1.93-3.712 7.572-.519z"/><linearGradient id="i" gradientUnits="userSpaceOnUse" x1="220.756" y1="38.891" x2="249.63" y2="38.891"><stop offset="0" stop-color="#262626"/><stop offset="1" stop-color="#0d0d0d"/></linearGradient><path fill="url(#i)" d="M241.168 36.887l6.532 6.16-12.396-2.449-14.548 6.68 9.946-8.387-4.602-4.231 10.465.742 13.065-4.899z"/><linearGradient id="j" gradientUnits="userSpaceOnUse" x1="178.447" y1="48.911" x2="205.837" y2="48.911"><stop offset="0" stop-color="#262626"/><stop offset="1" stop-color="#0d0d0d"/></linearGradient><path fill="url(#j)" d="M205.837 39.04l-8.983 7.644 3.415 5.196-9.205-1.039-12.617 7.942 9.426-9.13-1.93-3.711 7.572-.52z"/><linearGradient id="k" gradientUnits="userSpaceOnUse" x1="156.376" y1="44.026" x2="183.123" y2="44.026"><stop offset="0" stop-color="#262626"/><stop offset="1" stop-color="#0d0d0d"/></linearGradient><path fill="url(#k)" d="M183.123 34.585l-7.868 5.345.668 2.375-13.138 6.309s-7.646 5.938-6.235 4.676c15.291-13.731 26.573-18.705 26.573-18.705z"/><linearGradient id="l" gradientUnits="userSpaceOnUse" x1="138.884" y1="61.864" x2="171.321" y2="61.864"><stop offset="0" stop-color="#262626"/><stop offset="1" stop-color="#0d0d0d"/></linearGradient><path fill="url(#l)" d="M171.321 47.204l-12.173 11.653s.965 3.935 1.335 6.013c-8.238-1.93-10.836 2.078-15.067 5.641-2.449 2.078-6.532 6.012-6.532 6.012l11.506-13.361.297-4.008 5.566-1.188 15.068-10.762z"/><linearGradient id="m" gradientUnits="userSpaceOnUse" x1="214.298" y1="90.552" x2="246.884" y2="90.552"><stop offset="0" stop-color="#262626"/><stop offset="1" stop-color="#0d0d0d"/></linearGradient><path fill="url(#m)" d="M246.884 78.008l-9.947 10.763 7.497 10.391-14.326-5.122-15.81 9.056 10.465-12.544-5.789-8.387 12.322 3.191z"/><linearGradient id="n" gradientUnits="userSpaceOnUse" x1="169.984" y1="97.752" x2="199.378" y2="97.752"><stop offset="0" stop-color="#262626"/><stop offset="1" stop-color="#0d0d0d"/></linearGradient><path fill="url(#n)" d="M199.378 84.317l-9.945 11.356 4.601 9.576-10.688-3.935-13.362 9.873 9.725-12.842-2.896-6.902 8.686 1.484z"/><linearGradient id="o" gradientUnits="userSpaceOnUse" x1="118.063" y1="79.234" x2="142.372" y2="79.234"><stop offset="0" stop-color="#262626"/><stop offset="1" stop-color="#0d0d0d"/></linearGradient><path fill="url(#o)" d="M118.472 92.259c-2.82 3.935 9.873-10.688 9.873-10.688l3.562-.371.965-5.344s7.719-8.239 9.5-10.317c.074-.001-10.614 8.386-23.9 26.72z"/><linearGradient id="p" gradientUnits="userSpaceOnUse" x1="131.758" y1="111.299" x2="155.808" y2="111.299"><stop offset="0" stop-color="#262626"/><stop offset="1" stop-color="#0d0d0d"/></linearGradient><path fill="url(#p)" d="M155.808 97.752l-8.981 11.579 1.705 8.165-6.531-2.524-10.243 9.873 8.016-12.025-.221-6.68 5.121.964z"/><linearGradient id="q" gradientUnits="userSpaceOnUse" x1="143.783" y1="80.568" x2="167.831" y2="80.568"><stop offset="0" stop-color="#262626"/><stop offset="1" stop-color="#0d0d0d"/></linearGradient><path fill="url(#q)" d="M167.831 67.022l-8.979 11.58 1.706 8.165-6.606-2.45-10.169 9.798L151.8 82.09l-.223-6.68 5.047.965z"/><linearGradient id="r" gradientUnits="userSpaceOnUse" x1="111.421" y1="105.36" x2="135.024" y2="105.36"><stop offset="0" stop-color="#262626"/><stop offset="1" stop-color="#0d0d0d"/></linearGradient><path fill="url(#r)" d="M135.024 88.548l-9.797 14.325-.668 10.021-4.602-2.375-8.536 11.653 7.644-15.215 2.525-7.127 2.598.669z"/><linearGradient id="s" gradientUnits="userSpaceOnUse" x1="161.375" y1="136.684" x2="191.214" y2="136.684"><stop offset="0" stop-color="#262626"/><stop offset="1" stop-color="#0d0d0d"/></linearGradient><path fill="url(#s)" d="M191.214 120.168l-10.243 15.291 6.086 13.583-12.099-6.68-13.583 10.837 9.204-15.811-4.156-11.578 9.945 4.973z"/><linearGradient id="t" gradientUnits="userSpaceOnUse" x1="93.795" y1="120.893" x2="106.67" y2="120.893"><stop offset="0" stop-color="#262626"/><stop offset="1" stop-color="#0d0d0d"/></linearGradient><path fill="url(#t)" d="M93.903 132.564c-.816 2.004 3.266-5.642 3.266-5.642l.965 1.336s6.086-13.88 8.536-19.373c0 .001-7.052 9.725-12.767 23.679z"/><linearGradient id="u" gradientUnits="userSpaceOnUse" x1="125.077" y1="141.897" x2="147.866" y2="141.897"><stop offset="0" stop-color="#262626"/><stop offset="1" stop-color="#0d0d0d"/></linearGradient><path fill="url(#u)" d="M130.868 133.306c2.152.964 3.859 2.301 5.863 3.489 3.934-3.266 7.497-6.829 11.135-10.392-.075 1.336-1.188 2.301-1.931 3.414-2.152 3.415-4.38 7.497-6.532 11.06.965 4.008 2.152 7.868 3.192 11.876-2.747-1.633-5.345-3.489-7.794-5.418-3.117 2.449-5.864 6.309-8.759 9.352-.073.074-.743 1.114-.966.52 2.598-4.528 4.603-9.65 7.275-14.103-.741-2.97-1.186-6.309-1.483-9.798z"/><linearGradient id="v" gradientUnits="userSpaceOnUse" x1="81.434" y1="154.387" x2="94.2" y2="154.387"><stop offset="0" stop-color="#262626"/><stop offset="1" stop-color="#0d0d0d"/></linearGradient><path fill="url(#v)" d="M94.2 138.577s-7.793 15.884-7.2 27.983l-1.632-4.677-3.935 8.313 3.562-10.539 2.673-11.803.37 2.004 6.162-11.281z"/><linearGradient id="w" gradientUnits="userSpaceOnUse" x1="89.005" y1="189.235" x2="101.845" y2="189.235"><stop offset="0" stop-color="#262626"/><stop offset="1" stop-color="#0d0d0d"/></linearGradient><path fill="url(#w)" d="M94.052 195.657c-2.079 3.488-5.047 8.906-5.047 8.906l3.191-14.102-1.04-12.47s2.45 4.007 3.712 5.939c2.301-3.34 6.977-10.021 6.977-10.021l-5.121 15.439 2.969 13.805c-.075.074-4.083-4.825-5.641-7.496z"/><linearGradient id="x" gradientUnits="userSpaceOnUse" x1="77.425" y1="193.356" x2="84.401" y2="193.356"><stop offset="0" stop-color="#262626"/><stop offset="1" stop-color="#0d0d0d"/></linearGradient><path fill="url(#x)" d="M81.062 192.91l.372 13.062-1.856-5.641-2.152 7.052s2.227-15.217 1.781-24.049l.965 4.602s2.152-4.528 4.23-8.611l-3.34 13.585z"/><linearGradient id="y" gradientUnits="userSpaceOnUse" x1="234.71" y1="11.464" x2="258.462" y2="11.464"><stop offset="0" stop-color="#262626"/><stop offset="1" stop-color="#0d0d0d"/></linearGradient><path fill="url(#y)" d="M258.462 9.349s-7.348.074-23.752 4.23"/><linearGradient id="z" gradientUnits="userSpaceOnUse" x1="57.606" y1="268.844" x2="82.621" y2="268.844"><stop offset="0" stop-color="#262626"/><stop offset="1" stop-color="#0d0d0d"/></linearGradient><path fill="url(#z)" d="M57.606 252.142h12.545c1.855 0 3.637.223 5.121.742 1.559.52 2.895 1.188 3.934 2.079 1.114.89 1.93 2.004 2.523 3.339.594 1.337.892 2.822.892 4.454v.075c0 1.78-.372 3.414-1.039 4.75a9.706 9.706 0 0 1-2.82 3.415c-1.188.966-2.599 1.633-4.157 2.079a18.843 18.843 0 0 1-5.048.667h-8.165v11.804h-3.785v-33.404zm12.1 18.334c1.335 0 2.672-.148 3.785-.52a10.655 10.655 0 0 0 2.895-1.484 6.851 6.851 0 0 0 1.855-2.302c.445-.89.668-1.929.668-3.042v-.148c0-2.45-.816-4.232-2.449-5.494-1.633-1.261-3.859-1.854-6.531-1.854h-8.537v14.771h8.314v.073z"/><linearGradient id="A" gradientUnits="userSpaceOnUse" x1="103.923" y1="268.88" x2="126.563" y2="268.88"><stop offset="0" stop-color="#262626"/><stop offset="1" stop-color="#0d0d0d"/></linearGradient><path fill="url(#A)" d="M103.923 252.142h3.787v29.987h18.853v3.488h-22.64v-33.475z"/><linearGradient id="B" gradientUnits="userSpaceOnUse" x1="145.12" y1="268.769" x2="179.19" y2="268.769"><stop offset="0" stop-color="#262626"/><stop offset="1" stop-color="#0d0d0d"/></linearGradient><path fill="url(#B)" d="M160.335 251.92h3.564l15.29 33.697h-4.083l-3.934-8.907h-18.26l-3.935 8.907h-3.858l15.216-33.697zm9.279 21.524l-7.572-17.071-7.645 17.071h15.217z"/><linearGradient id="C" gradientUnits="userSpaceOnUse" x1="200.046" y1="268.88" x2="228.401" y2="268.88"><stop offset="0" stop-color="#262626"/><stop offset="1" stop-color="#0d0d0d"/></linearGradient><path fill="url(#C)" d="M200.046 252.142h3.562l21.081 26.87v-26.87h3.712v33.475h-3.043l-21.6-27.462v27.462h-3.713v-33.475h.001z"/><linearGradient id="D" gradientUnits="userSpaceOnUse" x1="252.227" y1="268.917" x2="276.647" y2="268.917"><stop offset="0" stop-color="#262626"/><stop offset="1" stop-color="#0d0d0d"/></linearGradient><path fill="url(#D)" d="M252.228 252.142h24.197v3.414h-20.412v11.505h18.26v3.415h-18.26v11.802h20.635v3.413h-24.42v-33.549z"/><linearGradient id="E" gradientUnits="userSpaceOnUse" x1="296.244" y1="268.88" x2="322.519" y2="268.88"><stop offset="0" stop-color="#262626"/><stop offset="1" stop-color="#0d0d0d"/></linearGradient><path fill="url(#E)" d="M307.525 255.631h-11.281v-3.489h26.275v3.489H311.31v29.986h-3.785v-29.986z"/><linearGradient id="F" gradientUnits="userSpaceOnUse" x1="341.076" y1="268.769" x2="375.294" y2="268.769"><stop offset="0" stop-color="#262626"/><stop offset="1" stop-color="#0d0d0d"/></linearGradient><path fill="url(#F)" d="M356.44 251.92h3.562l15.291 33.697h-4.156l-3.935-8.907h-18.259l-4.009 8.907h-3.859l15.365-33.697zm9.279 21.524l-7.571-17.071-7.645 17.071h15.216z"/><linearGradient id="G" gradientUnits="userSpaceOnUse" x1="396.152" y1="268.88" x2="423.911" y2="268.88"><stop offset="0" stop-color="#262626"/><stop offset="1" stop-color="#0d0d0d"/></linearGradient><path fill="url(#G)" d="M396.152 252.142h14.399c2.078 0 3.933.296 5.493.891 1.633.594 2.969 1.41 4.008 2.45a8.616 8.616 0 0 1 1.93 2.895c.444 1.113.667 2.375.667 3.711v.074c0 1.41-.222 2.672-.667 3.786-.445 1.113-1.04 2.078-1.856 2.895a10.025 10.025 0 0 1-2.895 2.003c-1.113.52-2.301.89-3.637 1.114l10.316 13.656h-4.602l-9.797-12.989h-9.575v12.989h-3.785v-33.475zm14.103 17.071c1.262 0 2.375-.148 3.488-.444 1.039-.372 2.004-.817 2.746-1.41.742-.594 1.337-1.262 1.781-2.153.446-.816.669-1.782.669-2.895v-.074c0-2.079-.743-3.71-2.227-4.825-1.485-1.187-3.638-1.708-6.309-1.708h-10.394v13.584h10.244v-.075z"/><linearGradient id="H" gradientUnits="userSpaceOnUse" x1="445.438" y1="268.88" x2="449.223" y2="268.88"><stop offset="0" stop-color="#262626"/><stop offset="1" stop-color="#0d0d0d"/></linearGradient><path fill="url(#H)" d="M445.438 252.142h3.785v33.475h-3.785v-33.475z"/><linearGradient id="I" gradientUnits="userSpaceOnUse" x1="471.788" y1="268.917" x2="506.062" y2="268.917"><stop offset="0" stop-color="#262626"/><stop offset="1" stop-color="#0d0d0d"/></linearGradient><path fill="url(#I)" d="M488.935 286.212c-2.523 0-4.899-.445-6.979-1.411-2.077-.964-3.859-2.151-5.418-3.71a16.91 16.91 0 0 1-3.488-5.494 18.014 18.014 0 0 1-1.262-6.606v-.074c0-2.301.444-4.527 1.262-6.606a16.9 16.9 0 0 1 3.488-5.492c1.484-1.559 3.266-2.822 5.418-3.786 2.079-.965 4.455-1.411 6.979-1.411s4.898.446 6.977 1.411a16.118 16.118 0 0 1 5.345 3.71 16.912 16.912 0 0 1 3.489 5.494 18.06 18.06 0 0 1 1.262 6.606c.073 0 .073.074 0 .074 0 2.3-.446 4.527-1.262 6.605a16.918 16.918 0 0 1-3.489 5.493c-1.484 1.559-3.267 2.821-5.418 3.785-2.006.967-4.308 1.412-6.904 1.412zm.148-3.489c1.93 0 3.71-.37 5.27-1.039 1.559-.742 2.969-1.707 4.156-2.968a14.451 14.451 0 0 0 2.673-4.379c.669-1.633.965-3.415.965-5.345v-.074c0-1.93-.296-3.711-.965-5.345-.669-1.707-1.559-3.118-2.746-4.379-1.188-1.262-2.598-2.227-4.156-2.969-1.634-.742-3.414-1.113-5.271-1.113-1.929 0-3.71.372-5.269 1.039a12.883 12.883 0 0 0-4.158 2.969c-1.112 1.262-2.078 2.673-2.745 4.379-.668 1.633-.966 3.415-.966 5.345v.074c0 1.929.298 3.711.966 5.344.667 1.708 1.558 3.118 2.745 4.379 1.188 1.262 2.598 2.226 4.158 2.969 1.631.743 3.412 1.113 5.343 1.113z"/><linearGradient id="J" gradientUnits="userSpaceOnUse" x1="5.427" y1="221.45" x2="559.672" y2="221.45"><stop offset="0" stop-color="#262626"/><stop offset="1" stop-color="#0d0d0d"/></linearGradient><path fill="url(#J)" d="M5.427 230.987s8.609-1.263 23.677-3.414a5608.179 5608.179 0 0 1 27.167-3.712c10.467-1.483 22.416-2.301 35.405-3.488 12.99-1.114 27.093-2.524 42.013-3.563 14.92-.816 30.656-1.781 46.91-2.449 8.165-.371 16.404-.817 24.792-1.039l25.386-.446c17.146-.297 34.515-.594 51.884-.964 17.369.297 34.737.593 51.81.964 8.536.148 16.997.297 25.385.446 8.389.222 16.628.742 24.793 1.039 16.329.742 32.065 1.633 46.911 2.449 14.918.966 28.946 2.45 41.937 3.489 12.99 1.187 24.866 2.079 35.406 3.562 10.54 1.41 19.67 2.673 27.167 3.712 15.067 2.151 23.604 3.414 23.604 3.414s-8.61-.742-23.826-2.077c-7.571-.743-16.701-1.56-27.241-2.524-5.271-.593-10.912-.817-16.775-1.113-5.938-.371-12.174-.743-18.63-1.114-12.99-.742-27.02-1.781-41.938-2.375-14.92-.445-30.581-.816-46.836-1.484-8.092-.297-16.33-.743-24.718-.816-8.388-.075-16.851-.148-25.386-.223-17.071-.148-34.441-.297-51.809-.52-17.295.148-34.664.297-51.736.52l-25.386.223c-8.388.149-16.627.593-24.718.816-16.255.668-31.99 1.039-46.836 1.484-14.92.595-28.947 1.708-41.864 2.375-6.531.371-12.691.743-18.63 1.114-5.938.296-11.579.52-16.85 1.113-10.54.964-19.744 1.856-27.241 2.524-15.144 1.335-23.827 2.077-23.827 2.077z"/><linearGradient id="K" gradientUnits="userSpaceOnUse" x1="265.217" y1="15.547" x2="298.024" y2="15.547"><stop offset="0" stop-color="#262626"/><stop offset="1" stop-color="#0d0d0d"/></linearGradient><path fill="url(#K)" d="M288.524 14.173l9.5 4.677-17.071-2.673-15.736 3.415 9.872-5.048-7.57-2.672 14.398 1.04 14.475-1.411z"/><linearGradient id="L" gradientUnits="userSpaceOnUse" x1="267.444" y1="60.676" x2="295.798" y2="60.676"><stop offset="0" stop-color="#262626"/><stop offset="1" stop-color="#0d0d0d"/></linearGradient><path fill="url(#L)" d="M275.905 59.822l-7.051-5.196 12.618 2.45 12.917-2.969-7.052 5.196 8.461 7.423-14.178-4.158-14.176 4.677z"/><linearGradient id="M" gradientUnits="userSpaceOnUse" x1="267.444" y1="38.891" x2="295.798" y2="38.891"><stop offset="0" stop-color="#262626"/><stop offset="1" stop-color="#0d0d0d"/></linearGradient><path fill="url(#M)" d="M275.905 38l-7.051-5.196 12.618 2.524 12.917-2.969-7.052 5.196 8.461 7.348-14.549-3.415-13.805 3.934z"/><linearGradient id="N" gradientUnits="userSpaceOnUse" x1="265.365" y1="90.366" x2="297.876" y2="90.366"><stop offset="0" stop-color="#262626"/><stop offset="1" stop-color="#0d0d0d"/></linearGradient><path fill="url(#N)" d="M275.089 89.364l-8.017-9.872 14.325 5.196 14.549-5.196-8.015 9.353 9.945 11.876-16.256-7.2-16.255 7.719"/><linearGradient id="O" gradientUnits="userSpaceOnUse" x1="263.732" y1="126.626" x2="299.435" y2="126.626"><stop offset="0" stop-color="#262626"/><stop offset="1" stop-color="#0d0d0d"/></linearGradient><path fill="url(#O)" d="M281.695 132.044l-17.963 9.872 10.466-16.033-9.427-14.548 16.701 8.091 16.775-8.091-9.723 14.029 10.912 16.329z"/><linearGradient id="P" gradientUnits="userSpaceOnUse" x1="263.806" y1="168.341" x2="299.435" y2="168.341"><stop offset="0" stop-color="#262626"/><stop offset="1" stop-color="#0d0d0d"/></linearGradient><path fill="url(#P)" d="M281.695 173.759l-17.889 9.873 10.392-16.033-9.427-14.548 16.701 8.164 16.775-8.164-9.723 14.028 10.912 16.33z"/><linearGradient id="Q" gradientUnits="userSpaceOnUse" x1="448.333" y1="147.966" x2="465.851" y2="147.966"><stop offset="0" stop-color="#262626"/><stop offset="1" stop-color="#0d0d0d"/></linearGradient><path fill="url(#Q)" d="M448.333 131.97l7.496 14.994-1.113 11.356s4.083-3.859 4.751-4.527c2.301 3.266 6.384 10.169 6.384 10.169l-5.346-13.88-.594-9.947-2.895 2.822-8.683-10.987z"/><linearGradient id="R" gradientUnits="userSpaceOnUse" x1="319.922" y1="130.151" x2="354.14" y2="130.151"><stop offset="0" stop-color="#262626"/><stop offset="1" stop-color="#0d0d0d"/></linearGradient><path fill="url(#R)" d="M319.922 113.859l10.243 15.068-8.981 15.068 15.959-8.165 16.997 10.614-10.689-16.256 7.052-13.063-14.028 6.384z"/><linearGradient id="S" gradientUnits="userSpaceOnUse" x1="321.63" y1="171.866" x2="356.144" y2="171.866"><stop offset="0" stop-color="#262626"/><stop offset="1" stop-color="#0d0d0d"/></linearGradient><path fill="url(#S)" d="M338.404 165.149l14.103-6.458s-4.898 8.536-7.052 13.063c3.562 5.419 7.349 10.615 10.688 16.255-5.79-3.414-16.997-10.614-16.997-10.614s-8.24 4.454-11.876 6.458c-1.484.817-4.156 1.707-4.156 1.707l8.981-15.068-10.466-14.771 16.775 9.428z"/><linearGradient id="T" gradientUnits="userSpaceOnUse" x1="427.401" y1="183.632" x2="446.922" y2="183.632"><stop offset="0" stop-color="#262626"/><stop offset="1" stop-color="#0d0d0d"/></linearGradient><path fill="url(#T)" d="M446.922 198.922s-5.419-6.087-8.387-7.867c-6.013 3.859-7.498 4.824-7.498 4.824l3.638-11.504-7.273-16.033 10.688 10.392 6.903-6.606-3.045 13.212 4.974 13.582z"/><linearGradient id="U" gradientUnits="userSpaceOnUse" x1="155.882" y1="175.801" x2="183.568" y2="175.801"><stop offset="0" stop-color="#262626"/><stop offset="1" stop-color="#0d0d0d"/></linearGradient><path fill="url(#U)" d="M174.29 176.58l9.278-17.22-14.547 11.059-11.432-7.868 5.122 13.287-6.829 16.404 11.877-11.135 12.47 8.462"/><linearGradient id="V" gradientUnits="userSpaceOnUse" x1="380.192" y1="175.801" x2="407.88" y2="175.801"><stop offset="0" stop-color="#262626"/><stop offset="1" stop-color="#0d0d0d"/></linearGradient><path fill="url(#V)" d="M389.397 176.58l-9.205-17.22 14.55 11.059 11.43-7.868-5.122 13.287 6.83 16.404-11.876-11.135-12.546 8.462"/><linearGradient id="W" gradientUnits="userSpaceOnUse" x1="306.487" y1="19.221" x2="340.929" y2="19.221"><stop offset="0" stop-color="#262626"/><stop offset="1" stop-color="#0d0d0d"/></linearGradient><path fill="url(#W)" d="M306.487 12.541l10.168 4.304-6.903 3.341 14.475-.298 16.702 6.013-11.803-6.68 4.897-1.634-11.429-1.039z"/><linearGradient id="X" gradientUnits="userSpaceOnUse" x1="345.827" y1="29.204" x2="378.04" y2="29.204"><stop offset="0" stop-color="#262626"/><stop offset="1" stop-color="#0d0d0d"/></linearGradient><path fill="url(#X)" d="M355.698 26.198l-3.562 2.376 11.134 1.335 14.77 7.943-11.208-7.645 1.709-1.633-22.714-8.017z"/><linearGradient id="Y" gradientUnits="userSpaceOnUse" x1="315.69" y1="61.9" x2="344.565" y2="61.9"><stop offset="0" stop-color="#262626"/><stop offset="1" stop-color="#0d0d0d"/></linearGradient><path fill="url(#Y)" d="M324.227 59.896l-6.533 6.162 12.323-2.45 14.547 6.68-9.945-8.388 4.676-4.23-10.466.742-13.139-4.899z"/><linearGradient id="Z" gradientUnits="userSpaceOnUse" x1="360.598" y1="70.734" x2="388.06" y2="70.734"><stop offset="0" stop-color="#262626"/><stop offset="1" stop-color="#0d0d0d"/></linearGradient><path fill="url(#Z)" d="M360.598 60.862l8.981 7.644-3.415 5.197 9.278-1.039 12.619 7.942-9.427-9.13 1.929-3.712-7.571-.519z"/><linearGradient id="aa" gradientUnits="userSpaceOnUse" x1="314.131" y1="38.891" x2="343.006" y2="38.891"><stop offset="0" stop-color="#262626"/><stop offset="1" stop-color="#0d0d0d"/></linearGradient><path fill="url(#aa)" d="M322.594 36.887l-6.532 6.16 12.395-2.449 14.549 6.68-9.946-8.387 4.601-4.231-10.39.742-13.14-4.899z"/><linearGradient id="ab" gradientUnits="userSpaceOnUse" x1="357.925" y1="48.911" x2="385.315" y2="48.911"><stop offset="0" stop-color="#262626"/><stop offset="1" stop-color="#0d0d0d"/></linearGradient><path fill="url(#ab)" d="M357.925 39.04l8.981 7.644-3.413 5.196 9.204-1.039 12.618 7.942-9.427-9.13 1.929-3.711-7.571-.52z"/><linearGradient id="ac" gradientUnits="userSpaceOnUse" x1="380.639" y1="44.026" x2="407.4" y2="44.026"><stop offset="0" stop-color="#262626"/><stop offset="1" stop-color="#0d0d0d"/></linearGradient><path fill="url(#ac)" d="M380.639 34.585l7.867 5.345-.667 2.375 13.138 6.309s7.72 5.938 6.234 4.676c-15.291-13.731-26.572-18.705-26.572-18.705z"/><linearGradient id="ad" gradientUnits="userSpaceOnUse" x1="392.44" y1="61.864" x2="424.878" y2="61.864"><stop offset="0" stop-color="#262626"/><stop offset="1" stop-color="#0d0d0d"/></linearGradient><path fill="url(#ad)" d="M392.439 47.204l12.174 11.653s-.965 3.935-1.336 6.013c8.239-1.93 10.837 2.078 15.068 5.641 2.523 2.078 6.532 6.012 6.532 6.012l-11.506-13.361-.297-4.008-5.566-1.188-15.069-10.762z"/><linearGradient id="ae" gradientUnits="userSpaceOnUse" x1="316.877" y1="90.552" x2="349.464" y2="90.552"><stop offset="0" stop-color="#262626"/><stop offset="1" stop-color="#0d0d0d"/></linearGradient><path fill="url(#ae)" d="M316.877 78.008l9.947 10.763-7.496 10.391 14.325-5.122 15.811 9.056-10.466-12.544 5.863-8.387-12.395 3.191z"/><linearGradient id="af" gradientUnits="userSpaceOnUse" x1="364.384" y1="97.752" x2="393.776" y2="97.752"><stop offset="0" stop-color="#262626"/><stop offset="1" stop-color="#0d0d0d"/></linearGradient><path fill="url(#af)" d="M364.384 84.317l9.945 11.356-4.602 9.576 10.688-3.935 13.361 9.873-9.722-12.842 2.894-6.902-8.684 1.484z"/><linearGradient id="ag" gradientUnits="userSpaceOnUse" x1="421.24" y1="79.234" x2="445.698" y2="79.234"><stop offset="0" stop-color="#262626"/><stop offset="1" stop-color="#0d0d0d"/></linearGradient><path fill="url(#ag)" d="M445.289 92.259c2.821 3.935-9.872-10.688-9.872-10.688l-3.637-.371-1.039-5.344s-7.72-8.239-9.501-10.317c.074-.001 10.763 8.386 24.049 26.72z"/><linearGradient id="ah" gradientUnits="userSpaceOnUse" x1="407.953" y1="111.299" x2="432.003" y2="111.299"><stop offset="0" stop-color="#262626"/><stop offset="1" stop-color="#0d0d0d"/></linearGradient><path fill="url(#ah)" d="M407.953 97.752l8.983 11.579-1.708 8.165 6.533-2.524 10.242 9.873-8.017-12.025.223-6.68-5.122.964z"/><linearGradient id="ai" gradientUnits="userSpaceOnUse" x1="395.929" y1="80.568" x2="419.978" y2="80.568"><stop offset="0" stop-color="#262626"/><stop offset="1" stop-color="#0d0d0d"/></linearGradient><path fill="url(#ai)" d="M395.929 67.022l8.981 11.58-1.707 8.165 6.532-2.45 10.244 9.798-8.017-12.025.223-6.68-5.047.965z"/><linearGradient id="aj" gradientUnits="userSpaceOnUse" x1="428.736" y1="105.36" x2="452.34" y2="105.36"><stop offset="0" stop-color="#262626"/><stop offset="1" stop-color="#0d0d0d"/></linearGradient><path fill="url(#aj)" d="M428.736 88.548l9.799 14.325.667 10.021 4.603-2.375 8.535 11.653-7.644-15.215-2.524-7.127-2.599.669z"/><linearGradient id="ak" gradientUnits="userSpaceOnUse" x1="372.549" y1="136.684" x2="402.387" y2="136.684"><stop offset="0" stop-color="#262626"/><stop offset="1" stop-color="#0d0d0d"/></linearGradient><path fill="url(#ak)" d="M372.549 120.168l10.243 15.291-6.087 13.583 12.099-6.68 13.583 10.837-9.204-15.811 4.156-11.578-9.945 4.973z"/><linearGradient id="al" gradientUnits="userSpaceOnUse" x1="457.091" y1="120.893" x2="469.967" y2="120.893"><stop offset="0" stop-color="#262626"/><stop offset="1" stop-color="#0d0d0d"/></linearGradient><path fill="url(#al)" d="M469.858 132.564c.816 2.004-3.267-5.642-3.267-5.642l-.965 1.336s-6.086-13.88-8.536-19.373c.001.001 7.054 9.725 12.768 23.679z"/><linearGradient id="am" gradientUnits="userSpaceOnUse" x1="415.894" y1="141.897" x2="438.684" y2="141.897"><stop offset="0" stop-color="#262626"/><stop offset="1" stop-color="#0d0d0d"/></linearGradient><path fill="url(#am)" d="M432.893 133.306c-2.151.964-3.858 2.301-5.863 3.489-3.934-3.266-7.497-6.829-11.135-10.392.075 1.336 1.189 2.301 1.932 3.414 2.152 3.415 4.378 7.497 6.531 11.06-.964 4.008-2.153 7.868-3.192 11.876 2.746-1.633 5.346-3.489 7.795-5.418 3.117 2.449 5.863 6.309 8.758 9.352.074.074.743 1.114.966.52-2.599-4.528-4.603-9.65-7.274-14.103.74-2.97 1.186-6.309 1.482-9.798z"/><linearGradient id="an" gradientUnits="userSpaceOnUse" x1="469.562" y1="154.387" x2="482.327" y2="154.387"><stop offset="0" stop-color="#262626"/><stop offset="1" stop-color="#0d0d0d"/></linearGradient><path fill="url(#an)" d="M469.562 138.577s7.794 15.884 7.199 27.983l1.633-4.677 3.934 8.313-3.562-10.539-2.673-11.803-.298 2.004-6.233-11.281z"/><linearGradient id="ao" gradientUnits="userSpaceOnUse" x1="462.065" y1="189.235" x2="474.832" y2="189.235"><stop offset="0" stop-color="#262626"/><stop offset="1" stop-color="#0d0d0d"/></linearGradient><path fill="url(#ao)" d="M469.71 195.657c2.152 3.488 5.122 8.906 5.122 8.906l-3.193-14.102 1.04-12.47s-2.45 4.007-3.712 5.939l-6.902-10.021 5.048 15.439-2.896 13.805c-.073.074 3.934-4.825 5.493-7.496z"/><linearGradient id="ap" gradientUnits="userSpaceOnUse" x1="479.359" y1="193.356" x2="486.337" y2="193.356"><stop offset="0" stop-color="#262626"/><stop offset="1" stop-color="#0d0d0d"/></linearGradient><path fill="url(#ap)" d="M482.699 192.91l-.372 13.062 1.856-5.641 2.153 7.052s-2.228-15.217-1.781-24.049l-.966 4.602s-2.152-4.528-4.23-8.611l3.34 13.585z"/><linearGradient id="aq" gradientUnits="userSpaceOnUse" x1="56.419" y1="320.059" x2="71.413" y2="320.059"><stop offset="0" stop-color="#262626"/><stop offset="1" stop-color="#0d0d0d"/></linearGradient><path fill="url(#aq)" d="M64.732 328.298c-1.263 0-2.376-.224-3.415-.593-1.039-.445-1.854-.965-2.598-1.708-.742-.742-1.262-1.632-1.707-2.598-.371-1.04-.594-2.08-.594-3.267v-.074c0-1.113.223-2.151.594-3.191.445-.966.965-1.854 1.707-2.598a8.934 8.934 0 0 1 2.598-1.78 8.377 8.377 0 0 1 3.341-.669c.668 0 1.335.074 1.93.148.594.074 1.113.223 1.558.446.521.147.967.443 1.337.666.446.297.892.595 1.263.966l-1.782 2.152a3.429 3.429 0 0 0-.89-.667c-.297-.223-.669-.371-1.039-.52-.372-.149-.742-.298-1.114-.372-.445-.074-.891-.148-1.411-.148-.741 0-1.409.148-2.003.446-.669.296-1.188.742-1.634 1.261a7.275 7.275 0 0 0-1.113 1.781c-.296.669-.371 1.41-.371 2.152v.075c0 .816.148 1.557.371 2.3.224.743.594 1.337 1.113 1.782.445.521 1.039.89 1.708 1.188.667.297 1.409.444 2.226.444.742 0 1.486-.073 2.153-.371.668-.223 1.187-.52 1.708-.889v-3.045h-4.083v-2.449h6.829v6.754c-.372.373-.816.669-1.336.967a7.76 7.76 0 0 1-1.56.816c-.594.222-1.188.444-1.78.518-.671.002-1.338.077-2.006.077z"/><linearGradient id="ar" gradientUnits="userSpaceOnUse" x1="78.538" y1="321.914" x2="89.524" y2="321.914"><stop offset="0" stop-color="#262626"/><stop offset="1" stop-color="#0d0d0d"/></linearGradient><path fill="url(#ar)" d="M86.703 328.001v-1.483c-.37.52-.965.891-1.559 1.188-.668.296-1.41.518-2.301.518a5.772 5.772 0 0 1-1.634-.222c-.52-.149-.965-.372-1.336-.741-.371-.298-.668-.742-.965-1.188a3.54 3.54 0 0 1-.371-1.635c0-.665.148-1.26.371-1.78s.594-.892 1.039-1.261c.445-.297.965-.594 1.559-.742.595-.149 1.262-.223 2.005-.223s1.335 0 1.856.148c.52.074 1.039.223 1.484.371v-.223c0-.817-.298-1.486-.744-1.929-.519-.445-1.262-.669-2.226-.669-.669 0-1.262.074-1.856.224-.52.147-1.113.296-1.633.517l-.742-2.226c.669-.298 1.336-.521 2.078-.743.742-.148 1.559-.297 2.525-.297 1.781 0 3.116.446 4.007 1.337.892.892 1.263 2.152 1.263 3.786v7.124h-2.821v.149zm0-5.047c-.37-.149-.742-.223-1.262-.372a9.16 9.16 0 0 0-1.483-.148c-.893 0-1.56.148-2.006.521-.519.371-.742.817-.742 1.336v.075c0 .592.224 1.038.669 1.334.444.298 1.039.446 1.633.446.446 0 .89-.074 1.263-.148.37-.148.742-.298 1.038-.52.296-.223.521-.521.669-.815.146-.297.222-.668.222-1.04v-.669h-.001z"/><linearGradient id="as" gradientUnits="userSpaceOnUse" x1="97.392" y1="319.725" x2="100.212" y2="319.725"><stop offset="0" stop-color="#262626"/><stop offset="1" stop-color="#0d0d0d"/></linearGradient><path fill="url(#as)" d="M97.392 311.375h2.82v16.699h-2.82v-16.699z"/><linearGradient id="at" gradientUnits="userSpaceOnUse" x1="108.377" y1="319.762" x2="111.347" y2="319.762"><stop offset="0" stop-color="#262626"/><stop offset="1" stop-color="#0d0d0d"/></linearGradient><path fill="url(#at)" d="M108.377 311.523h2.97v2.598h-2.97v-2.598zm.148 4.453h2.747v12.025h-2.747v-12.025z"/><linearGradient id="au" gradientUnits="userSpaceOnUse" x1="119.585" y1="319.725" x2="122.333" y2="319.725"><stop offset="0" stop-color="#262626"/><stop offset="1" stop-color="#0d0d0d"/></linearGradient><path fill="url(#au)" d="M119.585 311.375h2.748v16.699h-2.748v-16.699z"/><linearGradient id="av" gradientUnits="userSpaceOnUse" x1="129.754" y1="321.989" x2="141.481" y2="321.989"><stop offset="0" stop-color="#262626"/><stop offset="1" stop-color="#0d0d0d"/></linearGradient><path fill="url(#av)" d="M136.063 328.298a6.794 6.794 0 0 1-2.449-.446c-.742-.295-1.41-.74-2.004-1.261-.52-.52-.965-1.188-1.336-2.005-.297-.741-.521-1.632-.521-2.523v-.074c0-.89.149-1.707.445-2.449.297-.74.669-1.409 1.263-2.003.52-.595 1.113-1.041 1.855-1.337.742-.298 1.484-.519 2.375-.519.965 0 1.782.147 2.523.519.742.371 1.337.816 1.781 1.41a7.875 7.875 0 0 1 1.113 2.078c.224.816.371 1.632.371 2.449v.371c0 .148 0 .297-.074.372h-8.832c.148.965.52 1.782 1.188 2.3.594.52 1.41.742 2.301.742.668 0 1.262-.147 1.781-.371.52-.223.965-.594 1.484-1.037l1.633 1.408c-.594.669-1.262 1.261-2.078 1.635-.74.517-1.704.741-2.819.741zm2.747-7.125a7.747 7.747 0 0 0-.297-1.263 4.736 4.736 0 0 0-.594-1.04c-.297-.297-.594-.517-.965-.666-.371-.148-.742-.224-1.262-.224-.816 0-1.559.298-2.078.89-.594.595-.891 1.338-1.039 2.303h6.235z"/><linearGradient id="aw" gradientUnits="userSpaceOnUse" x1="148.236" y1="321.989" x2="161.003" y2="321.989"><stop offset="0" stop-color="#262626"/><stop offset="1" stop-color="#0d0d0d"/></linearGradient><path fill="url(#aw)" d="M154.62 328.298c-.891 0-1.781-.148-2.523-.52a5.553 5.553 0 0 1-2.078-1.336 5.918 5.918 0 0 1-1.336-2.006c-.372-.74-.446-1.557-.446-2.448 0-.89.149-1.707.446-2.449.37-.74.815-1.409 1.336-2.003a5.889 5.889 0 0 1 2.004-1.337c.816-.371 1.633-.519 2.523-.519.965 0 1.781.147 2.598.519.816.296 1.484.742 2.005 1.337a5.947 5.947 0 0 1 1.335 2.003c.297.742.52 1.56.52 2.449v.074c0 .817-.148 1.634-.52 2.451-.296.814-.742 1.408-1.335 2.004a5.903 5.903 0 0 1-2.005 1.334c-.743.298-1.559.447-2.524.447zm0-2.376c.594 0 1.039-.073 1.484-.296s.816-.521 1.113-.815c.297-.374.594-.743.742-1.188s.223-.966.223-1.485c0-.52-.074-1.038-.297-1.483-.148-.445-.445-.892-.742-1.263-.297-.372-.742-.592-1.113-.817-.445-.22-.965-.295-1.484-.295s-1.039.148-1.484.295c-.445.226-.816.445-1.113.817a5.1 5.1 0 0 0-.742 1.263 4.79 4.79 0 0 0-.223 1.483v.074c0 .521.074 1.04.297 1.485.223.446.445.89.742 1.261s.742.669 1.188.817c.444-.001.89.147 1.409.147z"/><linearGradient id="ax" gradientUnits="userSpaceOnUse" x1="179.411" y1="320.059" x2="194.405" y2="320.059"><stop offset="0" stop-color="#262626"/><stop offset="1" stop-color="#0d0d0d"/></linearGradient><path fill="url(#ax)" d="M187.725 328.298c-1.261 0-2.375-.224-3.414-.593-1.039-.445-1.856-.965-2.599-1.708-.741-.742-1.262-1.632-1.706-2.598-.372-1.04-.595-2.08-.595-3.267v-.074c0-1.113.223-2.151.595-3.191a7.535 7.535 0 0 1 1.706-2.598 8.372 8.372 0 0 1 2.673-1.78c1.039-.446 2.079-.669 3.34-.669.669 0 1.337.074 1.931.148s1.113.223 1.559.446c.444.147.965.443 1.409.666.446.297.892.595 1.263.966l-1.782 2.152c-.296-.298-.593-.519-.964-.667-.298-.223-.668-.371-1.04-.52-.37-.149-.741-.298-1.187-.372-.446-.074-.892-.148-1.411-.148-.742 0-1.409.148-2.003.446-.669.296-1.188.742-1.634 1.261s-.816 1.114-1.113 1.781c-.298.669-.37 1.41-.37 2.152v.075c0 .816.147 1.557.37 2.3.297.743.594 1.337 1.113 1.782.445.521 1.04.89 1.708 1.188.667.297 1.41.444 2.227.444.742 0 1.483-.073 2.152-.371.668-.223 1.262-.52 1.706-.889v-3.045h-4.081v-2.449h6.828v6.754c-.371.373-.816.669-1.336.967-.52.296-1.039.592-1.559.816-.594.222-1.114.444-1.781.518-.594.002-1.263.077-2.005.077z"/><linearGradient id="ay" gradientUnits="userSpaceOnUse" x1="201.53" y1="321.914" x2="212.517" y2="321.914"><stop offset="0" stop-color="#262626"/><stop offset="1" stop-color="#0d0d0d"/></linearGradient><path fill="url(#ay)" d="M209.696 328.001v-1.483c-.372.52-.965.891-1.559 1.188-.669.296-1.411.518-2.301.518a5.772 5.772 0 0 1-1.634-.222c-.52-.149-.964-.372-1.337-.741-.37-.298-.667-.742-.964-1.188a3.551 3.551 0 0 1-.372-1.635c0-.665.074-1.26.372-1.78.223-.52.594-.892 1.04-1.261.443-.297.964-.594 1.559-.742a8.238 8.238 0 0 1 2.003-.223c.742 0 1.337 0 1.856.148a8.702 8.702 0 0 1 1.484.371v-.223c0-.817-.223-1.486-.742-1.929-.521-.445-1.262-.669-2.227-.669-.669 0-1.263.074-1.855.224-.52.147-1.04.296-1.635.517l-.741-2.226c.668-.298 1.336-.521 2.078-.743.742-.148 1.56-.297 2.523-.297 1.782 0 3.118.446 4.009 1.337.891.892 1.262 2.152 1.262 3.786v7.124h-2.82v.149zm.075-5.047c-.371-.149-.742-.223-1.262-.372-.52-.074-.965-.148-1.56-.148-.89 0-1.559.148-2.004.521-.444.371-.742.817-.742 1.336v.075c0 .592.223 1.038.668 1.334.446.298 1.039.446 1.633.446a6.55 6.55 0 0 0 1.262-.148c.372-.148.743-.298 1.04-.52a2.35 2.35 0 0 0 .668-.815c.148-.297.223-.668.223-1.04v-.668h.074z"/><linearGradient id="az" gradientUnits="userSpaceOnUse" x1="220.459" y1="319.725" x2="223.28" y2="319.725"><stop offset="0" stop-color="#262626"/><stop offset="1" stop-color="#0d0d0d"/></linearGradient><path fill="url(#az)" d="M220.459 311.375h2.821v16.699h-2.821v-16.699z"/><linearGradient id="aA" gradientUnits="userSpaceOnUse" x1="231.444" y1="319.762" x2="234.413" y2="319.762"><stop offset="0" stop-color="#262626"/><stop offset="1" stop-color="#0d0d0d"/></linearGradient><path fill="url(#aA)" d="M231.444 311.523h2.969v2.598h-2.969v-2.598zm.075 4.453h2.82v12.025h-2.82v-12.025z"/><linearGradient id="aB" gradientUnits="userSpaceOnUse" x1="242.651" y1="319.725" x2="245.474" y2="319.725"><stop offset="0" stop-color="#262626"/><stop offset="1" stop-color="#0d0d0d"/></linearGradient><path fill="url(#aB)" d="M242.651 311.375h2.822v16.699h-2.822v-16.699z"/><linearGradient id="aC" gradientUnits="userSpaceOnUse" x1="252.82" y1="321.989" x2="264.549" y2="321.989"><stop offset="0" stop-color="#262626"/><stop offset="1" stop-color="#0d0d0d"/></linearGradient><path fill="url(#aC)" d="M259.057 328.298a6.795 6.795 0 0 1-2.45-.446c-.742-.295-1.41-.74-2.004-1.261a5.448 5.448 0 0 1-1.262-2.005c-.371-.741-.521-1.632-.521-2.523v-.074c0-.89.149-1.707.446-2.449.297-.74.668-1.409 1.262-2.003.52-.595 1.113-1.041 1.855-1.337.742-.298 1.484-.519 2.375-.519.965 0 1.781.147 2.524.519.742.371 1.336.816 1.781 1.41.521.595.817 1.261 1.112 2.078.225.816.372 1.632.372 2.449v.743h-8.833c.148.965.52 1.782 1.188 2.3.594.52 1.41.742 2.301.742.668 0 1.262-.147 1.781-.371.521-.223.965-.594 1.484-1.037l1.635 1.408c-.596.669-1.262 1.261-2.079 1.635-.889.517-1.855.741-2.967.741zm2.746-7.125a7.852 7.852 0 0 0-.297-1.263 4.7 4.7 0 0 0-.595-1.04c-.296-.297-.593-.517-.965-.666-.371-.148-.742-.224-1.262-.224-.891 0-1.559.298-2.078.89-.52.595-.891 1.338-1.039 2.303h6.236z"/><linearGradient id="aD" gradientUnits="userSpaceOnUse" x1="271.972" y1="319.762" x2="274.94" y2="319.762"><stop offset="0" stop-color="#262626"/><stop offset="1" stop-color="#0d0d0d"/></linearGradient><path fill="url(#aD)" d="M271.972 311.523h2.969v2.598h-2.969v-2.598zm.074 4.453h2.746v12.025h-2.746v-12.025z"/><linearGradient id="aE" gradientUnits="userSpaceOnUse" x1="306.19" y1="320.096" x2="319.477" y2="320.096"><stop offset="0" stop-color="#262626"/><stop offset="1" stop-color="#0d0d0d"/></linearGradient><path fill="url(#aE)" d="M306.189 312.043h7.126c1.855 0 3.191.446 4.156 1.409.743.742 1.04 1.561 1.04 2.672v.075a6.5 6.5 0 0 1-.149 1.263c-.147.371-.296.742-.519.965a3.57 3.57 0 0 1-.742.741c-.297.223-.52.371-.817.594.444.148.891.371 1.262.595.371.223.743.445 1.039.816.297.296.521.667.668 1.112.148.371.224.892.224 1.411v.075c0 .742-.148 1.334-.446 1.854-.297.52-.668 1.04-1.187 1.411-.521.371-1.115.592-1.856.814-.742.149-1.559.298-2.449.298h-7.349v-16.105h-.001zm6.608 6.756c.891 0 1.632-.226 2.152-.521.519-.371.816-.892.816-1.634v-.074c0-.669-.223-1.115-.743-1.484-.445-.371-1.188-.52-2.078-.52h-4.009v4.232h3.862v.001zm.815 6.752c.965 0 1.708-.147 2.227-.52.52-.369.816-.889.816-1.632 0-.668-.297-1.188-.816-1.56-.519-.371-1.335-.592-2.449-.592h-4.454v4.378h4.677v-.074z"/><linearGradient id="aF" gradientUnits="userSpaceOnUse" x1="326.75" y1="322.063" x2="337.438" y2="322.063"><stop offset="0" stop-color="#262626"/><stop offset="1" stop-color="#0d0d0d"/></linearGradient><path fill="url(#aF)" d="M331.056 328.298c-1.411 0-2.45-.446-3.192-1.261-.742-.817-1.113-1.932-1.113-3.415v-7.646h2.746v6.829c0 .967.223 1.709.669 2.152.444.521 1.039.742 1.854.742.817 0 1.485-.296 1.932-.816.519-.518.741-1.261.741-2.227v-6.828h2.746v12.023h-2.672v-1.854a4.701 4.701 0 0 1-1.484 1.483c-.595.594-1.337.818-2.227.818z"/><linearGradient id="aG" gradientUnits="userSpaceOnUse" x1="344.935" y1="321.989" x2="356.663" y2="321.989"><stop offset="0" stop-color="#262626"/><stop offset="1" stop-color="#0d0d0d"/></linearGradient><path fill="url(#aG)" d="M351.097 328.298c-.892 0-1.708-.148-2.449-.446a5.75 5.75 0 0 1-1.93-1.261c-.595-.52-.967-1.188-1.337-2.005-.296-.741-.445-1.632-.445-2.523v-.074c0-.89.149-1.707.445-2.449.298-.74.668-1.409 1.262-2.003.52-.595 1.113-1.041 1.856-1.337.742-.298 1.484-.519 2.375-.519.965 0 1.782.147 2.524.519.741.371 1.335.816 1.78 1.41a7.875 7.875 0 0 1 1.113 2.078c.223.816.371 1.632.371 2.449v.743h-8.832c.148.965.52 1.782 1.187 2.3.595.52 1.41.742 2.302.742.668 0 1.262-.147 1.781-.371.52-.223.965-.594 1.483-1.037l1.634 1.408c-.594.669-1.261 1.261-2.078 1.635-.965.517-1.929.741-3.042.741zm2.746-7.125a7.747 7.747 0 0 0-.297-1.263 4.736 4.736 0 0 0-.594-1.04 3.46 3.46 0 0 0-.892-.666c-.37-.148-.741-.224-1.262-.224-.815 0-1.558.298-2.078.89-.593.595-.89 1.338-1.039 2.303h6.162z"/><linearGradient id="aH" gradientUnits="userSpaceOnUse" x1="363.938" y1="322.025" x2="374.849" y2="322.025"><stop offset="0" stop-color="#262626"/><stop offset="1" stop-color="#0d0d0d"/></linearGradient><path fill="url(#aH)" d="M363.938 315.976h2.82v1.932c.223-.298.371-.594.668-.817.224-.297.52-.52.817-.668a2.61 2.61 0 0 1 1.039-.446c.371-.147.816-.147 1.262-.147 1.336 0 2.448.445 3.191 1.262.742.817 1.113 1.929 1.113 3.414v7.646h-2.82v-6.83c0-.963-.223-1.632-.669-2.151-.444-.519-1.038-.741-1.854-.741-.817 0-1.485.296-1.931.814-.52.521-.742 1.263-.742 2.228v6.754h-2.82v-12.247h-.074z"/><linearGradient id="aI" gradientUnits="userSpaceOnUse" x1="381.974" y1="321.989" x2="394.815" y2="321.989"><stop offset="0" stop-color="#262626"/><stop offset="1" stop-color="#0d0d0d"/></linearGradient><path fill="url(#aI)" d="M388.357 328.298c-.891 0-1.781-.148-2.522-.52-.817-.298-1.485-.741-2.005-1.336a5.947 5.947 0 0 1-1.336-2.006c-.298-.74-.521-1.557-.521-2.448 0-.89.149-1.707.521-2.449a5.965 5.965 0 0 1 1.336-2.003 5.555 5.555 0 0 1 2.078-1.337c.742-.371 1.634-.519 2.598-.519.892 0 1.782.147 2.523.519.817.296 1.485.742 2.005 1.337a5.95 5.95 0 0 1 1.336 2.003c.297.742.445 1.56.445 2.449v.074c0 .817-.148 1.634-.445 2.451-.371.814-.816 1.408-1.336 2.004a5.552 5.552 0 0 1-2.077 1.334c-.743.298-1.635.447-2.6.447zm.076-2.376c.52 0 1.039-.073 1.484-.296s.816-.521 1.112-.815a6.43 6.43 0 0 0 .743-1.188c.147-.445.224-.966.224-1.485 0-.52-.076-1.038-.298-1.483-.223-.445-.445-.892-.741-1.263-.298-.372-.669-.592-1.189-.817-.445-.22-.964-.295-1.484-.295s-1.039.148-1.484.295c-.445.226-.816.445-1.112.817-.298.371-.595.742-.743 1.263a4.82 4.82 0 0 0-.224 1.483v.074c0 .521.076 1.04.298 1.485.148.446.445.89.742 1.261.372.371.742.669 1.188.817.445-.001.963.147 1.484.147z"/><linearGradient id="aJ" gradientUnits="userSpaceOnUse" x1="401.199" y1="321.988" x2="410.626" y2="321.988"><stop offset="0" stop-color="#262626"/><stop offset="1" stop-color="#0d0d0d"/></linearGradient><path fill="url(#aJ)" d="M406.32 328.223a8.429 8.429 0 0 1-2.672-.444 7.863 7.863 0 0 1-2.449-1.336l1.263-1.856c.666.52 1.335.892 2.003 1.113.669.223 1.337.372 1.931.372s1.039-.149 1.409-.372c.298-.222.446-.52.446-.889v-.076a.843.843 0 0 0-.223-.592c-.148-.148-.371-.298-.594-.446-.224-.148-.521-.223-.892-.371-.296-.148-.668-.223-1.038-.298-.446-.073-.892-.296-1.338-.445a3.77 3.77 0 0 1-1.186-.668c-.373-.297-.669-.595-.892-.964-.223-.371-.372-.892-.372-1.485v-.074c0-.592.075-1.037.372-1.483.223-.445.519-.817.892-1.189.37-.296.815-.594 1.335-.742a6.245 6.245 0 0 1 1.634-.223c.814 0 1.559.148 2.301.371a6.796 6.796 0 0 1 2.077 1.04l-1.113 2.004c-.594-.369-1.187-.595-1.781-.814a4.458 4.458 0 0 0-1.632-.298c-.521 0-.966.074-1.263.298-.296.22-.444.517-.444.888v.075c0 .223.072.371.222.594.148.148.371.298.594.446.224.147.52.223.892.371.296.149.667.223 1.039.297.444.148.891.295 1.335.444.445.148.816.445 1.188.668.371.297.669.595.891.966s.371.816.371 1.411v.072c0 .594-.149 1.188-.371 1.634-.222.446-.52.892-.965 1.188-.371.297-.891.519-1.41.741-.298-.002-.891.072-1.56.072z"/><linearGradient id="aK" gradientUnits="userSpaceOnUse" x1="428.514" y1="320.022" x2="445.216" y2="320.022"><stop offset="0" stop-color="#262626"/><stop offset="1" stop-color="#0d0d0d"/></linearGradient><path fill="url(#aK)" d="M435.566 311.969h2.597l7.053 16.105h-2.97l-1.634-3.857h-7.57l-1.633 3.857h-2.896l7.053-16.105zm4.007 9.724l-2.745-6.386-2.747 6.386h5.492z"/><linearGradient id="aL" gradientUnits="userSpaceOnUse" x1="452.268" y1="319.762" x2="455.235" y2="319.762"><stop offset="0" stop-color="#262626"/><stop offset="1" stop-color="#0d0d0d"/></linearGradient><path fill="url(#aL)" d="M452.268 311.523h2.968v2.598h-2.968v-2.598zm.072 4.453h2.746v12.025h-2.746v-12.025z"/><linearGradient id="aM" gradientUnits="userSpaceOnUse" x1="463.326" y1="321.871" x2="470.377" y2="321.871"><stop offset="0" stop-color="#262626"/><stop offset="1" stop-color="#0d0d0d"/></linearGradient><path fill="url(#aM)" d="M463.326 315.976h2.746v2.747c.371-.89.892-1.633 1.633-2.228.669-.594 1.56-.814 2.672-.742v2.896h-.148c-.593 0-1.187.073-1.632.296-.521.223-.965.52-1.336.891a3.227 3.227 0 0 0-.817 1.483c-.223.595-.296 1.263-.296 2.08v4.602H463.4v-12.025h-.074z"/><linearGradient id="aN" gradientUnits="userSpaceOnUse" x1="476.464" y1="321.989" x2="488.191" y2="321.989"><stop offset="0" stop-color="#262626"/><stop offset="1" stop-color="#0d0d0d"/></linearGradient><path fill="url(#aN)" d="M482.773 328.298c-.891 0-1.708-.148-2.449-.446-.743-.295-1.41-.74-2.005-1.261-.52-.52-.964-1.188-1.335-2.005-.298-.741-.521-1.632-.521-2.523v-.074c0-.89.149-1.707.445-2.449.298-.74.669-1.409 1.262-2.003.521-.595 1.115-1.041 1.856-1.337a5.866 5.866 0 0 1 2.375-.519c.965 0 1.781.147 2.524.519.741.371 1.336.816 1.781 1.41a7.934 7.934 0 0 1 1.113 2.078c.223.816.37 1.632.37 2.449v.743h-8.832c.148.965.52 1.782 1.188 2.3.593.52 1.408.742 2.3.742.668 0 1.262-.147 1.781-.371.521-.223.965-.594 1.484-1.037l1.633 1.408c-.594.669-1.261 1.261-2.078 1.635-.813.517-1.777.741-2.892.741zm2.747-7.125a7.645 7.645 0 0 0-.297-1.263 4.777 4.777 0 0 0-.594-1.04c-.223-.297-.594-.517-.891-.666a3.475 3.475 0 0 0-1.262-.224c-.815 0-1.56.298-2.077.89-.596.595-.892 1.338-1.04 2.303h6.161z"/><linearGradient id="aO" gradientUnits="userSpaceOnUse" x1="494.724" y1="321.988" x2="504.299" y2="321.988"><stop offset="0" stop-color="#262626"/><stop offset="1" stop-color="#0d0d0d"/></linearGradient><path fill="url(#aO)" d="M499.771 328.223a7.66 7.66 0 0 1-2.598-.444 7.89 7.89 0 0 1-2.45-1.336l1.262-1.856c.669.52 1.336.892 2.004 1.113.668.223 1.336.372 1.93.372s1.04-.149 1.412-.372c.296-.222.52-.52.52-.889v-.076a.844.844 0 0 0-.224-.592c-.147-.148-.371-.298-.594-.446s-.521-.223-.891-.371c-.297-.148-.669-.223-1.04-.298-.445-.073-.89-.296-1.335-.445-.446-.148-.817-.371-1.188-.668s-.668-.595-.89-.964c-.223-.371-.372-.892-.372-1.485v-.074c0-.592.149-1.037.372-1.483.222-.445.519-.817.89-1.189.371-.296.816-.594 1.337-.742a6.385 6.385 0 0 1 1.707-.223c.741 0 1.559.148 2.301.371s1.484.594 2.079 1.04l-1.114 2.004c-.594-.369-1.187-.595-1.781-.814a4.468 4.468 0 0 0-1.634-.298c-.52 0-.965.074-1.261.298a1.05 1.05 0 0 0-.445.888v.075c0 .223.073.371.222.594.149.148.371.298.595.446.223.147.519.223.89.371.298.149.669.223 1.039.297l1.338.444c.444.148.815.445 1.187.668.371.297.668.595.891.966s.371.816.371 1.411v.072a3.78 3.78 0 0 1-.371 1.634 3.767 3.767 0 0 1-.965 1.188c-.37.297-.891.519-1.409.741-.597-.002-1.192.072-1.785.072z"/><linearGradient id="aP" gradientUnits="userSpaceOnUse" x1="288.746" y1="321.172" x2="292.16" y2="321.172"><stop offset="0" stop-color="#262626"/><stop offset="1" stop-color="#0d0d0d"/></linearGradient><path fill="url(#aP)" d="M288.746 319.465h3.414v3.415h-3.414z"/><linearGradient id="aQ" gradientUnits="userSpaceOnUse" x1="267.963" y1="7.311" x2="293.647" y2="7.311"><stop offset="0" stop-color="#262626"/><stop offset="1" stop-color="#0d0d0d"/></linearGradient><path fill="url(#aQ)" d="M267.963 7.938s10.837-2.82 25.684 0"/><linearGradient id="aR" gradientUnits="userSpaceOnUse" x1="305.299" y1="11.464" x2="329.052" y2="11.464"><stop offset="0" stop-color="#262626"/><stop offset="1" stop-color="#0d0d0d"/></linearGradient><path fill="url(#aR)" d="M305.299 9.349s7.35.074 23.753 4.23"/></svg>