<svg width="340" height="340" viewBox="0 0 340 340" xmlns="http://www.w3.org/2000/svg"><defs><linearGradient x1="50%" y1="0%" x2="50%" y2="97.24%" id="a"><stop stop-color="#E2373C" offset="0%"/><stop stop-color="#FC9867" offset="100%"/></linearGradient></defs><circle stroke="url(#a)" stroke-width="10" stroke-linecap="round" stroke-linejoin="round" cx="170" cy="170" r="165"/><g class="day-group" transform="translate(165)"><path d="M41.352 9.017C32.836 7.01 19.547 5.065 5 5" stroke="#FFF" stroke-width="11"/><circle fill="#E2373C" cx="5" cy="5" r="5"/></g><g class="day-group" transform="translate(201 4)"><path d="M38.411 16.266A163.773 163.773 0 0 0 5.351 5.017" stroke="#FFF" stroke-width="11"/><circle fill="#E2383D" cx="5" cy="5" r="5"/></g><g class="day-group" transform="translate(234 15)"><path d="M35.148 23.1A164.94 164.94 0 0 0 5.411 5.265" stroke="#FFF" stroke-width="11"/><circle fill="#E43C3E" cx="5" cy="5" r="5"/></g><g class="day-group" transform="translate(264 33)"><path d="M29.293 27.344A165.967 165.967 0 0 0 5.148 5.099" stroke="#FFF" stroke-width="11"/><circle fill="#E54140" cx="5" cy="5" r="5"/></g><g class="day-group" transform="translate(288 54)"><path d="M24.377 32.559A165.527 165.527 0 0 0 5.293 6.344" stroke="#FFF" stroke-width="11"/><circle fill="#E64743" cx="5" cy="5" r="5"/></g><g class="day-group" transform="translate(307 81)"><path d="M20.116 38.46A164.132 164.132 0 0 0 5.377 5.559" stroke="#FFF" stroke-width="11"/><circle fill="#E84F46" cx="5" cy="5" r="5"/></g><g class="day-group" transform="translate(322 114)"><path d="M12.135 39.002A164.16 164.16 0 0 0 5.115 5.46" stroke="#FFF" stroke-width="11"/><circle fill="#EB584B" cx="5" cy="5" r="5"/></g><g class="day-group" transform="translate(329 148)"><path d="M4.978 40.467c.86-6.623 1.537-21.077.157-35.465" stroke="#FFF" stroke-width="11"/><circle fill="#EE6350" cx="5" cy="5" r="5"/></g><g class="day-group" transform="translate(326 183)"><path d="M.895 38.222A164.1 164.1 0 0 0 7.978 5.467" stroke="#FFF" stroke-width="11"/><circle fill="#F06D54" cx="8" cy="5" r="5"/></g><g class="day-group" transform="translate(313 216)"><path d="M.115 36.172a164.116 164.116 0 0 0 13.78-30.95" stroke="#FFF" stroke-width="11"/><circle fill="#F37658" cx="14" cy="5" r="5"/></g><g class="day-group" transform="translate(293 247)"><path d="M.192 32.77A165.502 165.502 0 0 0 20.115 5.171" stroke="#FFF" stroke-width="11"/><circle fill="#F6805D" cx="20" cy="5" r="5"/></g><g class="day-group" transform="translate(268 275)"><path d="M.809 27.156A165.964 165.964 0 0 0 25.192 4.769" stroke="#FFF" stroke-width="11"/><circle fill="#F7875F" cx="25" cy="5" r="5"/></g><g class="day-group" transform="translate(238 297)"><path d="M.663 23.079A164.912 164.912 0 0 0 30.809 5.156" stroke="#FFF" stroke-width="11"/><circle fill="#FA8F63" cx="31" cy="5" r="5"/></g><g class="day-group" transform="translate(205 315)"><path d="M.988 16.064A163.767 163.767 0 0 0 33.663 5.079" stroke="#FFF" stroke-width="11"/><circle fill="#FB9365" cx="34" cy="5" r="5"/></g><g class="day-group" transform="translate(170 326)"><path d="M0 9c12.36 0 24.404-1.36 35.988-3.936" stroke="#FFF" stroke-width="11"/><circle fill="#FC9767" cx="36" cy="5" r="5"/></g><g class="day-group" transform="translate(138 330)"><path d="M.18 1.934A165.83 165.83 0 0 0 32 5" stroke="#FFF" stroke-width="11"/><circle fill="#FC9766" cx="33" cy="5" r="5"/></g><g class="day-group" transform="translate(104 321)"><path d="M.095.312A163.76 163.76 0 0 0 34.18 10.934" stroke="#FFF" stroke-width="11"/><circle fill="#FC9767" cx="34" cy="10.9" r="5"/></g><g class="day-group" transform="translate(74 304)"><path d="M.136.31a164.767 164.767 0 0 0 29.96 17.002" stroke="#FFF" stroke-width="11"/><circle fill="#FB9465" cx="30" cy="17.3" r="5"/></g><g class="day-group" transform="translate(47 280)"><path d="M.867.946A165.927 165.927 0 0 0 27.136 24.31" stroke="#FFF" stroke-width="11"/><circle fill="#F98E62" cx="26.9" cy="24.1" r="5"/></g><g class="day-group" transform="translate(26 252)"><path d="M.914.223a165.528 165.528 0 0 0 20.953 28.723" stroke="#FFF" stroke-width="11"/><circle fill="#F7875F" cx="22" cy="29" r="5"/></g><g class="day-group" transform="translate(12 220)"><path d="M.955.76a164.11 164.11 0 0 0 13.959 31.463" stroke="#FFF" stroke-width="11"/><circle fill="#F57F5C" cx="14.8" cy="32" r="5"/></g><g class="day-group" transform="translate(5 187)"><path d="M.88.14a164.15 164.15 0 0 0 7.075 33.62" stroke="#FFF" stroke-width="11"/><circle fill="#F37658" cx="8" cy="34" r="5"/></g><g class="day-group" transform="translate(0 151)"><path d="M5.984.876c-1.382 9.814-.888 30.39-.104 35.264" stroke="#FFF" stroke-width="11"/><circle fill="#F06C53" cx="5.9" cy="36" r="5"/></g><g class="day-group" transform="translate(1 119)"><path d="M12.02.039a164.116 164.116 0 0 0-7.036 32.837" stroke="#FFF" stroke-width="11"/><circle fill="#EE624F" cx="5" cy="33" r="5"/></g><g class="day-group" transform="translate(8 86)"><path d="M19.945.012A164.152 164.152 0 0 0 5.02 33.039" stroke="#FFF" stroke-width="11"/><circle fill="#EB594B" cx="5" cy="33" r="5"/></g><g class="day-group" transform="translate(23 58)"><path d="M24.93.986A165.567 165.567 0 0 0 4.944 28.012" stroke="#FFF" stroke-width="11"/><circle fill="#E84F46" cx="5" cy="28" r="5"/></g><g class="day-group" transform="translate(42 34)"><path d="M33.234.911A165.913 165.913 0 0 0 5.929 24.986" stroke="#FFF" stroke-width="11"/><circle fill="#E64743" cx="5.9" cy="25" r="5"/></g><g class="day-group" transform="translate(70 19)"><path d="M33.074.137a164.762 164.762 0 0 0-27.84 15.774" stroke="#FFF" stroke-width="11"/><circle fill="#E54141" cx="5.1" cy="16" r="5"/></g><g class="day-group" transform="translate(98 8)"><path d="M35.84.974A163.754 163.754 0 0 0 5.074 11.137" stroke="#FFF" stroke-width="11"/><circle fill="#E2373C" cx="5.4" cy="11" r="5"/></g><g class="day-group" transform="translate(129 4)"><path d="M41 1C29.26 1 14.906 2.66 5.152 4.972" stroke="#FFF" stroke-width="11"/><circle fill="#E33B3E" cx="5" cy="5" r="5"/></g><circle class="circle-top-mask" transform="translate(165)" fill="#E2373C" cx="5" cy="5" r="5"/></svg>