<svg xmlns="http://www.w3.org/2000/svg" viewBox="0 0 220 51.861"><path d="M16.158 1.735C14.972.58 13.339 0 11.258 0H.729C.241 0 0 .242 0 .729V28.51c0 .484.241.725.729.725h10.529c2.082 0 3.715-.583 4.901-1.753 1.181-1.17 1.777-2.797 1.777-4.881V5.726c-.001-2.111-.596-2.837-1.778-3.991zm-2.417 20.697c0 2.112-1.028 3.166-3.083 3.166H4.624c-.315 0-.472-.156-.472-.471V4.068c0-.284.156-.43.472-.43h6.034c2.055 0 3.083.146 3.083 2.256v16.538zM25.252 7.41h-2.74c-.456 0-.682.241-.682.725V28.51c0 .484.241.725.724.725h2.741c.257 0 .435-.05.537-.149.097-.1.15-.292.15-.576V8.135c-.001-.484-.245-.725-.73-.725zM25.295.1h-2.783c-.456 0-.682.23-.682.687v2.985c0 .483.226.725.682.725h2.783c.456 0 .686-.242.686-.725V.787c0-.457-.23-.687-.686-.687zm20.458 7.31h-9.589c-2.083 0-3.708.576-4.876 1.73-1.17 1.156-1.756 2.791-1.756 4.901v7.49c0 2.115.549 3.749 1.648 4.904 1.098 1.156 2.675 1.73 4.728 1.73h1.925c2.17 0 3.612-.771 4.325-2.309h.171v3.254c0 2.11-1.042 3.165-3.125 3.165H31.8c-.485 0-.727.242-.727.729v2.226c0 .456.242.682.727.682h8.047c2.081 0 3.716-.575 4.902-1.73 1.181-1.159 1.777-2.778 1.777-4.858V8.135c0-.484-.258-.725-.773-.725zm-3.424 13.48c0 2.398-1.168 3.595-3.509 3.595h-2.054c-2.026 0-3.039-1.056-3.039-3.166v-7.107c0-2.11 1.013-3.166 3.039-3.166h5.094c.315 0 .47.143.47.426v9.418zM53.843.1h-2.782c-.457 0-.686.23-.686.687v2.985c0 .483.228.725.686.725h2.782c.456 0 .685-.242.685-.725V.787c0-.457-.229-.687-.685-.687zM53.8 7.41h-2.739c-.457 0-.686.241-.686.725V28.51c0 .484.242.725.727.725h2.74c.257 0 .434-.05.534-.149.101-.1.151-.292.151-.576V8.135c.001-.484-.243-.725-.727-.725zm14.766 18.187h-1.67c-2.141 0-3.212-1.04-3.212-3.123V11.473c0-.284.158-.426.471-.426h3.982c.512 0 .769-.23.769-.686V8.135c0-.484-.258-.725-.769-.725h-3.982c-.314 0-.471-.146-.471-.43V.852c0-.488-.241-.73-.726-.73h-2.697c-.514 0-.771.242-.771.73V6.98c0 .284-.142.43-.426.43h-2.056c-.484 0-.725.241-.725.725v2.226c0 .257.048.437.15.537.1.1.291.15.575.15h2.056c.285 0 .426.143.426.426V22.69c0 2.084.6 3.695 1.799 4.835 1.197 1.144 2.851 1.712 4.963 1.712h2.313c.514 0 .771-.226.771-.683v-2.226c.001-.488-.256-.731-.77-.731zM87.525 7.41H77.94c-2.112 0-3.745.576-4.902 1.73-1.156 1.156-1.732 2.791-1.732 4.901v8.56c0 2.084.576 3.711 1.732 4.881 1.157 1.17 2.79 1.753 4.902 1.753h1.669c2.194 0 3.638-.756 4.32-2.268h.173v1.543c0 .484.242.725.728.725h2.695c.515 0 .772-.241.772-.725V8.135c0-.484-.257-.725-.772-.725zm-3.423 14.55c0 2.425-1.171 3.637-3.511 3.637h-2.053c-2.055 0-3.081-1.054-3.081-3.166v-8.219c0-2.11 1.026-3.166 3.081-3.166h5.091c.315 0 .472.143.472.426V21.96zM95.572.058h-2.696c-.485 0-.727.244-.727.729V28.51c0 .484.242.725.727.725h2.696c.486 0 .729-.241.729-.725V.787c0-.484-.243-.729-.729-.729z" fill="#e31c3d"/><path d="M117.786 0h-1.239c-.288 0-.43.173-.43.515v13.399c0 .257-.142.384-.43.384h-11.983c-.286 0-.427-.127-.427-.384V.515c0-.342-.158-.515-.472-.515h-1.24c-.287 0-.43.173-.43.515v28.206c0 .346.142.514.43.514h1.24c.315 0 .472-.168.472-.514v-12.11c0-.256.142-.386.427-.386h11.983c.288 0 .43.13.43.386v12.11c0 .346.142.514.43.514h1.239c.315 0 .472-.168.472-.514V.515c0-.342-.157-.515-.472-.515zm14.85 7.41h-3.68c-1.853 0-3.315.541-4.386 1.627-1.07 1.081-1.604 2.563-1.604 4.447v9.674c0 1.884.533 3.369 1.604 4.452 1.071 1.085 2.534 1.626 4.386 1.626h3.68c1.857 0 3.327-.541 4.413-1.626 1.082-1.083 1.623-2.568 1.623-4.452v-9.674c0-1.884-.542-3.365-1.623-4.447-1.086-1.086-2.556-1.627-4.413-1.627zm3.899 15.706c0 1.342-.354 2.375-1.052 3.104-.698.725-1.704 1.09-3.016 1.09h-3.338c-1.313 0-2.314-.365-2.997-1.09-.684-.729-1.029-1.762-1.029-3.104V13.53c0-1.343.344-2.379 1.029-3.104.682-.729 1.683-1.093 2.997-1.093h3.338c1.313 0 2.318.364 3.016 1.093.698.725 1.052 1.762 1.052 3.104v9.586zM157.762 7.41h-1.239c-.316 0-.473.169-.473.51v15.196c0 1.342-.395 2.375-1.178 3.104-.786.725-1.861 1.09-3.231 1.09h-2.782c-1.313 0-2.311-.369-2.998-1.114-.683-.74-1.028-1.784-1.028-3.122V7.92c0-.341-.158-.51-.467-.51h-1.244c-.283 0-.426.169-.426.51v15.238c0 1.884.526 3.369 1.581 4.452 1.056 1.085 2.499 1.626 4.325 1.626h2.824c2.225 0 3.71-.74 4.45-2.226h.173v1.712c0 .346.157.514.473.514h1.239c.284 0 .43-.168.43-.514V7.92c0-.341-.145-.51-.429-.51zm14.339 10.614l-5.353-2.141c-.914-.315-1.589-.698-2.035-1.155-.441-.457-.663-1.086-.663-1.885v-.986c0-.682.295-1.281.878-1.795.587-.514 1.462-.772 2.633-.772h6.719c.315 0 .473-.142.473-.425v-.987c0-.315-.158-.468-.473-.468h-6.93c-3.684 0-5.525 1.669-5.525 5.008 0 1.37.307 2.44.92 3.207.614.772 1.649 1.443 3.104 2.011l5.348 2.057c1.601.571 2.4 1.784 2.4 3.637v1.028c0 1.996-1.286 2.993-3.853 2.993h-7.234c-.314 0-.472.146-.472.43v.982c0 .318.158.472.472.472h7.447c1.996 0 3.473-.411 4.429-1.24.955-.828 1.435-2.099 1.435-3.81 0-1.711-.25-3.047-.748-4.002-.497-.955-1.491-1.676-2.972-2.159zM188.878 7.41h-3.681c-1.858 0-3.319.541-4.39 1.627-1.066 1.081-1.604 2.563-1.604 4.447v9.674c0 1.884.538 3.369 1.604 4.452 1.071 1.085 2.532 1.626 4.39 1.626h8.945c.314 0 .472-.154.472-.472v-.982c0-.315-.158-.472-.472-.472h-8.776c-1.312 0-2.31-.365-2.993-1.09-.686-.729-1.029-1.762-1.029-3.104V19.82c0-.257.127-.385.385-.385h12.67c.342 0 .514-.172.514-.513v-5.438c0-1.884-.545-3.365-1.627-4.447-1.086-1.086-2.556-1.627-4.408-1.627zm3.894 9.926c0 .258-.127.388-.384.388h-10.659c-.257 0-.385-.13-.385-.388V13.53c0-1.343.343-2.379 1.029-3.104.684-.729 1.682-1.093 2.993-1.093h3.385c1.313 0 2.31.364 2.993 1.093.687.725 1.028 1.762 1.028 3.104v3.806zm26.707-.352l-15.376-9.486c-.398-.211-.755 0-.755.402v.599c0 .645.184.752.438.909l14.297 8.918-14.297 8.918c-.254.158-.438.266-.438.909v.599c0 .407.357.614.755.407l15.376-9.489c.341-.246.521-.476.521-1.029v-.629c0-.553-.18-.784-.521-1.028zM105.672 49.143h-1.784c-.863 0-1.529-.229-1.998-.688-.469-.459-.704-1.119-.704-1.981v-5.191c0-.862.235-1.523.704-1.981.469-.459 1.135-.688 1.998-.688h1.784c.852 0 1.515.232 1.99.696.475.464.712 1.122.712 1.973v.769c0 .24-.121.36-.36.36h-1.375c-.229 0-.344-.12-.344-.36v-.671c0-.349-.074-.598-.221-.745-.147-.148-.396-.221-.745-.221h-1.114c-.338 0-.581.074-.728.221-.147.147-.221.396-.221.745v4.994c0 .35.074.598.221.745.147.147.39.221.728.221h1.114c.349 0 .598-.074.745-.221.147-.147.221-.396.221-.745v-.671c0-.24.114-.36.344-.36h1.375c.24 0 .36.12.36.36v.77c0 .851-.237 1.509-.712 1.973-.474.464-1.137.696-1.99.696zm8.319 0h-1.458c-.863 0-1.528-.229-1.997-.688-.47-.459-.704-1.119-.704-1.981v-3.013c0-.862.234-1.523.704-1.982.469-.458 1.135-.688 1.997-.688h1.458c.851 0 1.514.232 1.989.696.475.464.712 1.121.712 1.973v3.013c0 .851-.237 1.509-.712 1.973-.475.465-1.138.697-1.989.697zm-1.147-1.785h.835c.349 0 .597-.071.745-.213.147-.142.221-.387.221-.737v-2.882c0-.349-.074-.595-.221-.737-.147-.142-.396-.213-.745-.213h-.835c-.35 0-.595.071-.737.213-.142.142-.213.387-.213.737v2.882c0 .349.071.595.213.737.142.142.388.213.737.213zm8.547 1.785h-.671c-.841 0-1.477-.229-1.908-.688-.432-.459-.646-1.119-.646-1.981v-3.013c0-.862.215-1.523.646-1.982.431-.458 1.067-.688 1.908-.688h.671a2.2 2.2 0 0 1 .966.221c.305.147.518.368.638.663h.066v-3.7c0-.229.114-.344.343-.344h1.392c.229 0 .344.115.344.344v10.823c0 .229-.115.344-.344.344h-1.392c-.229 0-.343-.115-.343-.344v-.54h-.066a1.24 1.24 0 0 1-.638.663 2.188 2.188 0 0 1-.966.222zm1.671-3.045v-2.26c0-.829-.377-1.244-1.13-1.244h-.737c-.35 0-.596.073-.737.221-.142.147-.212.396-.212.745v2.816c0 .35.071.598.212.745.142.147.387.221.737.221h.737c.753 0 1.13-.414 1.13-1.244zm3.961-6.714V37.96c0-.218.109-.328.328-.328h1.424c.218 0 .328.104.328.311v1.441c0 .219-.11.328-.328.328h-1.424c-.219 0-.328-.109-.328-.328zm0 9.415v-7.663c0-.229.109-.344.328-.344h1.408c.23 0 .344.115.344.344v7.663c0 .142-.024.235-.074.278-.049.044-.133.066-.254.066h-1.408c-.229 0-.344-.114-.344-.344zm5.698.344h-1.392c-.229 0-.343-.115-.343-.344v-7.663c0-.229.115-.344.343-.344h1.392c.229 0 .343.115.343.344v.54h.066c.24-.589.775-.884 1.605-.884h.524c1.714 0 2.571.89 2.571 2.669v5.338c0 .229-.121.344-.361.344h-1.375c-.229 0-.344-.115-.344-.344V43.56c0-.349-.074-.598-.221-.745-.147-.147-.396-.221-.745-.221h-.59c-.753 0-1.13.415-1.13 1.244v4.961c.001.23-.114.344-.343.344zm9.776-.377h-.541c-.84 0-1.477-.229-1.907-.687-.431-.459-.647-1.119-.647-1.981v-2.636c0-.862.235-1.523.704-1.982.469-.458 1.135-.688 1.997-.688h3.783c.24 0 .36.115.36.344v8.072c0 .851-.237 1.506-.712 1.965-.475.459-1.138.688-1.99.688H140.4c-.131 0-.22-.025-.27-.074-.049-.049-.073-.134-.073-.254v-1.13c0-.229.114-.344.343-.344h2.8c.349 0 .597-.073.745-.221.147-.148.221-.391.221-.729v-1.245h-.066a1.277 1.277 0 0 1-.639.671 2.082 2.082 0 0 1-.964.231zm1.67-3.045v-2.948c0-.12-.066-.18-.197-.18h-1.539c-.349 0-.595.073-.736.221-.142.147-.213.396-.213.745v2.439c0 .35.071.595.213.737.142.142.387.213.736.213h.606c.753.001 1.13-.408 1.13-1.227zm7.384.737v-.328c0-.229.114-.344.344-.344h1.392c.229 0 .343.115.343.344v.131c0 .415.082.698.245.851.164.153.465.229.901.229h.769c.426 0 .723-.082.893-.245.169-.164.253-.469.253-.917v-.196a.821.821 0 0 0-.385-.729c-.256-.169-.576-.27-.957-.303a10.366 10.366 0 0 1-1.237-.188 8.091 8.091 0 0 1-1.236-.36c-.383-.148-.702-.437-.958-.868-.257-.432-.385-.985-.385-1.662V41.3c0-.852.24-1.512.72-1.981.481-.47 1.146-.704 1.997-.704h1.637c.863 0 1.534.235 2.014.704.48.469.72 1.13.72 1.981v.311c0 .229-.114.344-.343.344h-1.392c-.229 0-.344-.115-.344-.344v-.098c0-.425-.082-.715-.245-.868-.165-.153-.465-.229-.901-.229h-.639c-.448 0-.751.085-.908.254-.159.169-.238.499-.238.991v.311c0 .514.448.808 1.342.884.928.076 1.753.262 2.473.557.382.164.701.456.958.876s.385.957.385 1.612v.557c0 .851-.24 1.512-.72 1.981-.481.47-1.146.704-1.998.704h-1.784c-.852 0-1.518-.235-1.998-.704-.478-.469-.718-1.13-.718-1.981zm14.245 1.228v1.13c0 .12-.024.205-.073.254-.049.049-.139.074-.27.074h-2.44c-.863 0-1.528-.229-1.997-.688-.47-.459-.704-1.119-.704-1.981v-3.013c0-.862.234-1.523.704-1.982.469-.458 1.134-.688 1.997-.688h2.44c.229 0 .343.115.343.344v1.13c0 .12-.024.205-.073.254-.049.049-.139.074-.27.074h-2.113c-.339 0-.581.073-.728.221-.148.147-.221.396-.221.745v2.816c0 .35.073.598.221.745.147.147.389.221.728.221h2.113c.228 0 .343.115.343.344zm3.144 1.457h-1.392c-.229 0-.343-.115-.343-.344V37.976c0-.229.115-.344.343-.344h1.392c.23 0 .343.115.343.344v3.7h.066c.24-.589.775-.884 1.605-.884h.524c1.713 0 2.571.89 2.571 2.669v5.338c0 .229-.121.344-.361.344h-1.375c-.23 0-.344-.115-.344-.344V43.56c0-.349-.074-.598-.221-.745-.147-.147-.396-.221-.745-.221h-.59c-.753 0-1.13.415-1.13 1.244v4.961c0 .23-.114.344-.343.344zm10.822 0h-1.458c-.863 0-1.528-.229-1.997-.688-.47-.459-.704-1.119-.704-1.981v-3.013c0-.862.234-1.523.704-1.982.469-.458 1.134-.688 1.997-.688h1.458c.851 0 1.515.232 1.989.696.475.464.712 1.121.712 1.973v3.013c0 .851-.238 1.509-.712 1.973-.474.465-1.138.697-1.989.697zm-1.146-1.785h.834c.349 0 .598-.071.745-.213.147-.142.222-.387.222-.737v-2.882c0-.349-.074-.595-.222-.737-.147-.142-.396-.213-.745-.213h-.834c-.35 0-.596.071-.737.213-.142.142-.213.387-.213.737v2.882c0 .349.072.595.213.737.142.142.387.213.737.213zm9.48 1.785h-1.457c-.863 0-1.528-.229-1.997-.688-.47-.459-.704-1.119-.704-1.981v-3.013c0-.862.234-1.523.704-1.982.469-.458 1.135-.688 1.997-.688h1.457c.851 0 1.515.232 1.99.696.475.464.712 1.121.712 1.973v3.013c0 .851-.237 1.509-.712 1.973-.475.465-1.138.697-1.99.697zm-1.146-1.785h.834c.35 0 .598-.071.745-.213.147-.142.221-.387.221-.737v-2.882c0-.349-.074-.595-.221-.737-.147-.142-.396-.213-.745-.213h-.834c-.35 0-.596.071-.737.213-.142.142-.213.387-.213.737v2.882c0 .349.072.595.213.737.142.142.387.213.737.213zm7.303 1.785h-1.392c-.229 0-.344-.115-.344-.344V37.976c0-.229.114-.344.344-.344h1.392c.23 0 .343.115.343.344v10.823c0 .23-.113.344-.343.344z" fill="#212121"/></svg>