<svg width="44" height="12" viewBox="0 0 44 12" xmlns="http://www.w3.org/2000/svg" xmlns:xlink="http://www.w3.org/1999/xlink"><title>Page 1</title><defs><path id="a" d="M0 11.879V.072h8.58v11.807z"/><path id="c" d="M7.295.015v11.367H.037V.015h7.258z"/></defs><g fill="none" fill-rule="evenodd"><g transform="translate(0 .05)"><mask id="b" fill="#fff"><use xlink:href="#a"/></mask><path d="M8.409 5.125H4.74a.172.172 0 0 0-.171.172v1.794a.17.17 0 0 0 .171.171h1.431v2.229s-.321.11-1.21.11c-1.048 0-2.512-.384-2.512-3.603 0-3.22 1.525-3.645 2.956-3.645 1.24 0 1.773.219 2.113.324.106.032.205-.074.205-.169l.41-1.733a.16.16 0 0 0-.066-.134C7.929.543 7.087.072 4.962.072 2.512.072 0 1.114 0 6.123c0 5.01 2.876 5.756 5.3 5.756 2.007 0 3.225-.858 3.225-.858.05-.027.055-.098.055-.13V5.297a.171.171 0 0 0-.171-.172" fill="#100F0F" mask="url(#b)"/></g><path d="M27.316.721a.17.17 0 0 0-.17-.172H25.08a.172.172 0 0 0-.171.172v3.993h-3.22V.72a.171.171 0 0 0-.17-.172h-2.066a.172.172 0 0 0-.17.172v10.81c0 .095.076.173.17.173h2.066c.094 0 .17-.078.17-.173V6.907h3.22l-.005 4.624c0 .095.076.173.17.173h2.071c.095 0 .17-.078.17-.173V.72zM12.307 2.14c0-.744-.596-1.345-1.332-1.345-.735 0-1.332.601-1.332 1.345a1.34 1.34 0 0 0 1.332 1.346 1.34 1.34 0 0 0 1.332-1.346m-.147 7.11V4.26a.172.172 0 0 0-.172-.171H9.93c-.094 0-.179.097-.179.192v7.149c0 .21.131.272.3.272h1.856c.203 0 .253-.1.253-.276V9.251zm23.007-5.145h-2.05a.172.172 0 0 0-.17.173v5.3s-.522.381-1.26.381c-.74 0-.936-.335-.936-1.06v-4.62a.172.172 0 0 0-.17-.173H28.5a.172.172 0 0 0-.17.173V9.25c0 2.15 1.197 2.676 2.845 2.676 1.353 0 2.443-.748 2.443-.748s.052.394.075.44a.18.18 0 0 0 .151.094l1.323-.005a.173.173 0 0 0 .171-.173V4.278a.172.172 0 0 0-.171-.173" fill="#100F0F"/><g transform="translate(36.364 .534)"><mask id="d" fill="#fff"><use xlink:href="#c"/></mask><path d="M3.597 9.418a2.459 2.459 0 0 1-1.193-.344V5.651s.475-.292 1.06-.344c.737-.066 1.449.157 1.449 1.918 0 1.857-.321 2.224-1.316 2.193m.809-6.09c-1.165 0-1.957.52-1.957.52V.188a.171.171 0 0 0-.17-.173H.207a.172.172 0 0 0-.17.172v10.81c0 .095.076.173.17.173h1.438c.065 0 .114-.034.15-.092.036-.058.087-.498.087-.498s.847.802 2.45.802c1.883 0 2.963-.955 2.963-4.287 0-3.331-1.724-3.767-2.89-3.767" fill="#100F0F" mask="url(#d)"/></g><path d="M18.096 4.088h-1.55l-.002-2.047c0-.078-.04-.117-.13-.117h-2.11c-.083 0-.127.037-.127.116v2.115s-1.058.255-1.13.276a.172.172 0 0 0-.123.165v1.33a.17.17 0 0 0 .17.172h1.083v3.198c0 2.375 1.666 2.609 2.79 2.609a4.68 4.68 0 0 0 1.23-.203c.062-.022.097-.086.097-.155l.002-1.462a.174.174 0 0 0-.171-.173c-.09 0-.322.037-.56.037-.76 0-1.018-.354-1.018-.812v-3.04h1.55a.172.172 0 0 0 .17-.172V4.26a.171.171 0 0 0-.17-.172" fill="#100F0F"/></g></svg>