<svg width="256" height="360" viewBox="0 0 256 360" xmlns="http://www.w3.org/2000/svg" xmlns:xlink="http://www.w3.org/1999/xlink"><title>Oval 5</title><defs><linearGradient x1="50%" y1="0%" x2="50%" y2="97.24%" id="a"><stop stop-color="#E2373C" offset="0%"/><stop stop-color="#FC9867" offset="100%"/></linearGradient><path d="M111.765 0C49.975 0 0 50.08 0 112c0 84 111.765 208 111.765 208s111.764-124 111.764-208c0-61.92-49.974-112-111.764-112zm0 151.724c-22.088 0-40.015-17.92-40.015-40s17.927-40 40.015-40 40.014 17.92 40.014 40-17.926 40-40.014 40z" id="b"/></defs><g transform="translate(16 16)" fill="none"><use fill="url(#a)" fill-rule="evenodd" xlink:href="#b"/><path stroke="#FFF" stroke-width="16" d="M111.765-8c66.212 0 119.764 53.665 119.764 120 0 20.507-6.105 43.801-17.379 69.442-9.876 22.463-23.477 46.182-39.867 70.526-12.366 18.367-25.602 36.036-38.838 52.38a685.408 685.408 0 0 1-12.812 15.375 449.62 449.62 0 0 1-4.576 5.243l-.35.39-5.942 6.593-5.943-6.593-.35-.39a449.635 449.635 0 0 1-4.577-5.242 685.41 685.41 0 0 1-12.81-15.377c-13.237-16.343-26.473-34.012-38.839-52.38-16.39-24.343-29.99-48.062-39.867-70.525C-1.894 155.802-8 132.507-8 112-8 45.665 45.553-8 111.765-8zm0 151.724c17.67 0 32.014-14.339 32.014-32 0-17.66-14.344-32-32.014-32s-32.015 14.34-32.015 32c0 17.661 14.344 32 32.015 32z"/></g></svg>