<svg xmlns="http://www.w3.org/2000/svg" viewBox="0 0 529.488 112.896"><g class="face"><path d="M5.738 112.896c-3.164 0-5.738-2.57-5.738-5.728V9.661C0 4.333 4.333 0 9.66 0h105.389c5.327 0 9.659 4.333 9.659 9.66v75.55c0 5.327-4.333 9.659-9.659 9.659H29.653a8.489 8.489 0 0 0-6.039 2.501L9.771 111.215a5.671 5.671 0 0 1-4.033 1.681zM9.66 7.281a2.382 2.382 0 0 0-2.379 2.38v93.745l11.184-11.184a15.72 15.72 0 0 1 11.188-4.633h85.397a2.381 2.381 0 0 0 2.378-2.378V9.66a2.381 2.381 0 0 0-2.378-2.379H9.66z"/><path d="M51.678 56.605h30.248v7.432H51.678z"/><path class="mouth" d="M62.354 63.724h19.571v10.001H62.354z"/><path class="eyebrow" d="M51.84 30.467L28.604 19.631l-3.141 6.736 18.947 8.835h7.43zM28.604 50.773L51.84 39.937v-4.735h-7.43l-18.947 8.835z"/></g><path d="M182.689 75.384c0 5.593-2.039 10.152-6.116 13.676-4.079 3.525-10.195 5.286-18.352 5.286-1.515 0-4.077-.031-7.69-.088-3.613-.059-6.35-.088-8.213-.088V35.189h19.399c5.999 0 10.487 1.237 13.457 3.713 2.97 2.477 4.456 5.869 4.456 10.18 0 6.001-2.593 10.225-7.777 12.671 3.146.583 5.739 2.112 7.777 4.588 2.04 2.476 3.059 5.491 3.059 9.043zM167.748 50.83c0-2.272-.687-4.077-2.055-5.418-1.368-1.339-3.423-2.01-6.161-2.01h-5.679v15.817h4.456c3.262 0 5.651-.8 7.166-2.404 1.515-1.601 2.273-3.595 2.273-5.985zm2.534 25.429c0-2.738-.875-4.922-2.622-6.554-1.749-1.63-4.544-2.446-8.389-2.446h-5.419v18.35c1.749.233 3.757.35 6.03.35 6.932 0 10.4-3.234 10.4-9.7zm64.224 17.912h-12.757c-1.339-6.465-2.183-10.339-2.534-11.621H199.73c-1.05 4.487-1.865 8.36-2.449 11.621H186.01c4.193-18.815 9.64-38.476 16.339-58.981h15.467c5.999 17.768 11.565 37.429 16.69 58.981zm-17.214-20.446c-2.97-11.127-5.679-20.505-8.126-28.138-2.972 10.079-5.506 19.457-7.602 28.138h15.728zm44.661-39.672l-1.399 4.107c-2.271-.99-4.253-1.485-5.94-1.485-2.157 0-3.7.583-4.632 1.748-.934 1.165-1.399 2.97-1.399 5.418v6.99h9.524v5.068h-9.524v38.272h-6.903V55.898h-6.99V50.83h6.99v-6.64c0-4.02.901-7.136 2.707-9.35s4.575-3.321 8.304-3.321c3.378 0 6.465.845 9.262 2.534zm24.818 17.039l-.875 6.466c-1.166-.407-2.273-.612-3.321-.612-1.342 0-2.752.583-4.238 1.747-1.486 1.166-3.394 3.176-5.722 6.03v29.446h-6.905V50.83h5.68l.699 7.777c2.506-3.087 4.589-5.256 6.248-6.51 1.662-1.252 3.278-1.879 4.85-1.879 1.164.001 2.358.292 3.584.874zm41.427 20.361c0 7.748-1.721 13.587-5.156 17.52-3.439 3.932-8.157 5.898-14.156 5.898-11.594 0-17.389-7.135-17.389-21.408 0-7.746 1.716-13.573 5.156-17.476 3.435-3.903 8.154-5.855 14.156-5.855 11.591-.001 17.389 7.107 17.389 21.321zm-7.165 2.009c0-6.465-.906-11.082-2.709-13.849-1.806-2.766-4.691-4.152-8.652-4.152-7.339 0-11.008 5.331-11.008 15.992 0 6.525.901 11.185 2.707 13.981 1.806 2.796 4.689 4.194 8.652 4.194 3.494 0 6.203-1.339 8.126-4.019 1.921-2.68 2.884-6.728 2.884-12.147zm50.06-4.107c0 1.748-.045 5.535-.13 11.36-.088 5.825-.133 10.311-.133 13.456h-6.815c0-2.795.028-6.903.088-12.32.057-5.418.088-9.057.088-10.923 0-5.418-.687-9.306-2.055-11.665-1.368-2.36-3.451-3.539-6.248-3.539-2.97 0-6.523 1.719-10.66 5.156v33.291h-6.903V50.83h5.68l.612 5.156c4.485-3.903 9.057-5.855 13.72-5.855 4.134 0 7.296 1.5 9.479 4.5 2.184 3.001 3.277 7.908 3.277 14.724zm33.43 22.982c-3.553 1.689-6.786 2.533-9.697 2.533-3.672 0-6.248-.872-7.735-2.62-1.484-1.748-2.228-4.748-2.228-9V55.898h-6.99V50.83h7.078a186.474 186.474 0 0 0 1.835-12.321h4.98V50.83h11.622v5.068h-11.622v25.603c0 3.031.351 5.127 1.05 6.292.699 1.166 2.067 1.747 4.106 1.747 1.806 0 4.049-.465 6.73-1.397l.871 4.194zm38.327-18.962h-26.041v.873c0 5.301 1.005 9.162 3.015 11.578 2.01 2.418 4.994 3.627 8.958 3.627 4.193 0 8.417-.875 12.67-2.622l1.311 4.107c-5.068 2.62-10.283 3.931-15.642 3.931-11.651 0-17.477-7.019-17.477-21.059 0-7.514 1.56-13.339 4.677-17.476 3.115-4.136 7.472-6.205 13.063-6.205 11.183.002 16.338 7.751 15.466 23.246zm-6.73-4.631v-.35c0-8.853-3.058-13.281-9.173-13.281-3.032 0-5.419 1.281-7.166 3.845-1.749 2.564-2.74 5.825-2.973 9.786h19.312zm50.047.611c0 1.748-.045 5.535-.133 11.36-.088 5.825-.13 10.311-.13 13.456h-6.815c0-2.795.028-6.903.085-12.32.059-5.418.088-9.057.088-10.923 0-5.418-.685-9.306-2.053-11.665-1.37-2.36-3.451-3.539-6.248-3.539-2.97 0-6.523 1.719-10.66 5.156v33.291h-6.903V50.83h5.679l.612 5.156c4.485-3.903 9.057-5.855 13.718-5.855 4.136 0 7.298 1.5 9.482 4.5 2.185 3.001 3.278 7.908 3.278 14.724zm43.321 24.816h-5.592l-.699-4.805c-4.487 3.669-8.74 5.504-12.758 5.504-4.312 0-7.794-1.922-10.444-5.766-2.65-3.845-3.975-8.826-3.975-14.943 0-8.155 1.922-14.2 5.767-18.131 3.845-3.932 8.768-5.899 14.768-5.899.057 0 2.067.117 6.03.35V32.218h6.903v61.953zm-6.903-9.699V56.423c-2.389-.757-4.691-1.137-6.905-1.137-3.729 0-6.741 1.485-9.043 4.456-2.302 2.971-3.451 7.34-3.451 13.107 0 5.127.83 9.176 2.491 12.147 1.659 2.97 3.944 4.456 6.858 4.456 2.913.002 6.263-1.659 10.05-4.98z"/></svg>