<svg width="59" height="21" viewBox="0 0 59 21" xmlns="http://www.w3.org/2000/svg"><title>Fill 1</title><path d="M58.997 12.268a.878.878 0 0 0-.058-.241c-.197-.505-1.093-.034-1.398.093-.55.227-1.18.528-1.789.356-.168-.048-.119-.19 0-.262.06-.036 1.624-.91 2.085-2.848.736-3.098-1.525-3.96-2.416-4.065-.907-.106-1.919.032-2.345.202-1.208.479-1.523 1.544-1.607 2.183-.114.878-.127 2.41-.237 3.1-.073.453-.414 1.142-1.09 1.077-1.3-.127-1.897-.62-1.856-1.43.03-.568.021-.682.202-1.944.156-1.08.255-1.339.255-1.586 0-.708-.964-.851-1.286-.533-.25.247-.311.75-.374 1.598-.058.797-.182 1.835-.342 2.467-.248.985-.348 1.058-.575 1.34-.472.585-1.343.403-1.768.004-.25-.235-.284-.444-.236-1.134.049-.69.163-1.893.323-3.147.14-1.098.044-1.263-.297-1.57-.317-.287-1.533-.244-2.096-.244-.871 0-.82.41-.876 1.806-.025.61-.054 1.534-.116 2.25-.1 1.166-2.352 2.043-3.387 1.99-1.073-.054-1.177-2.033-1.245-2.493-.067-.46-.095-4.432.021-4.566.082-.095.728-.167 1.465-.31 1.63-.315 1.864-.522 1.866-1.026.001-.247-.015-.593-.293-.686-.162-.054-.584-.116-1.144-.181-1.614-.188-1.841-.13-1.85-.333-.016-.354.018-1.035-.01-1.303-.071-.659-.853-.88-1.735-.823-.174.011-.414.067-.433.297-.02.23-.018.408-.046.798-.063.867-.08.96-.42.959-.303-.002-2.823-.222-3.308-.068-.484.153-.465.479-.504.642-.039.163.049 1.14.097 1.563.048.422.142.996.2 1.082.058.086.24.33.746.268 1.719-.212 2.866-.469 3.098-.527.233-.057.26-.086.262.096.001.104.044 2.177.052 2.793.012 1.053.192 4.104-2.68 4.577-1.196.197-2.317-.147-2.827-.702-.289-.315-.147-.356-.02-.561.194-.31 1.81-2.185.456-4.128-.798-1.147-2.712-1.238-3.407-.94-.538.23-.973.945-1.057 1.816-.26 2.688 1.298 4.35 1.358 4.453.073.123-.2.519-1.15.657-1.276.185-3.235-1.335-3.184-1.533.024-.095.891-1.498.912-2.854.007-.462-.147-1.07-.466-1.683-.32-.614-1.327-1.56-2.416-1.353-2.565.489-2.272 2.99-2.094 3.673.368 1.412 1.232 2.66 1.373 2.908.192.34-5.425 2.541-5.643.48-.216-2.043 2.855-6.45 2.613-8.159-.218-1.54-1.266-1.862-2.178-1.878-.886-.015-1.12.124-1.42.296-.172.1-.42.296-.765-.028-.229-.216-.38-.367-.623-.559a1.298 1.298 0 0 0-.649-.268c-.33-.048-.756 0-1.027.115-.271.115-.484.316-.707.508-.223.192-.788.818-1.315.587-.229-.1-1.003-.482-1.561-.721-1.079-.462-2.634.286-3.194 1.27C2.028 5.352.383 11.11.134 11.87c-.559 1.705.708 3.095 2.416 3.015.722-.034 1.203-.295 1.659-1.116.264-.474 2.74-6.876 2.924-7.182.134-.223.58-.517.957-.325.378.191.454.591.398.968-.09.61-1.837 4.514-1.904 4.957-.115.751.247 1.169 1.035 1.21.54.028 1.078-.165 1.505-.962.24-.445 2.994-5.905 3.237-6.27.268-.4.484-.53.756-.517.212.01.55.064.466.692-.083.616-2.298 4.622-2.53 5.603-.353 1.488.612 3.489 3.194 3.58 1.283.047 4.254-.507 5.927-1.762.608-.455.447-.495.825-.163.545.477 1.556 1.149 2.551 1.149 2.261 0 3.912-1.396 3.987-1.447a.06.06 0 0 1 .077.01c.137.146 1.54.919 2.521.95a5.312 5.312 0 0 0 4.246-1.811c.395-.456.685-.868.804-1.043a.084.084 0 0 1 .13-.01c.14.152 1.195 2.07 3.29 1.805 1.168-.147 2.906-1.123 3.027-1.254a.054.054 0 0 1 .09.018c.062.167.329 1.108 1.4 1.856.878.613 2.568.736 3.318.328.622-.338.872-.554 1.307-.985.187-.185.472-.373.985-.265.574.12 2.092.386 2.188.432.109.051.126.247.093.451-.051.323-.174 1.453-.3 2.507-.126 1.055-.529 4.574.425 4.704.576.08 1.076-.46 1.209-.987.331-1.322.392-2.81.61-4.085.26-1.519.364-1.945.457-2.114.077-.14.078-.108 1.152-.017.744.062 1.348.165 2.245.041.742-.103 2.267-.66 2.186-1.562M21.844 8.854c-.035.497-.165.813-.43 1.27-.167.286-.339.072-.439-.07-.143-.202-.878-1.965-.317-2.329.158-.102.471-.16.697-.036a.87.87 0 0 1 .426.511c.063.206.087.322.063.654m6.96.256c-.066.573-.312.897-.402 1.017-.16.212-.224.295-.378.141-.124-.124-.589-1.06-.656-1.677-.036-.332.056-.806.338-.917.296-.117.597-.064.808.209.331.428.336.82.29 1.227m25.253 2.509c-.35.141-.502.055-.481-.516.004-.122.565-2.985 1.637-3.504.304-.147.612-.14.826.094.404.445.297 1.13-.006 1.755-.44.907-1.497 1.976-1.976 2.17" fill="#ED1C40" fill-rule="evenodd"/></svg>