<svg width="18" height="15" viewBox="0 0 18 15" xmlns="http://www.w3.org/2000/svg"><title>Fill 1</title><path d="M5.66 14.629c6.794 0 10.508-5.628 10.508-10.508 0-.16-.003-.319-.01-.477A7.515 7.515 0 0 0 18 1.732a7.37 7.37 0 0 1-2.12.581A3.705 3.705 0 0 0 17.502.27a7.4 7.4 0 0 1-2.345.897 3.694 3.694 0 0 0-6.293 3.368A10.484 10.484 0 0 1 1.253.676a3.69 3.69 0 0 0 1.143 4.93 3.665 3.665 0 0 1-1.673-.462v.048a3.694 3.694 0 0 0 2.962 3.62 3.704 3.704 0 0 1-1.667.063 3.697 3.697 0 0 0 3.45 2.565A7.41 7.41 0 0 1 .88 13.021c-.298 0-.592-.017-.881-.051a10.455 10.455 0 0 0 5.66 1.659" fill="#1DA1F2" fill-rule="evenodd"/></svg>