<?xml version="1.0" encoding="utf-8"?>
<!-- Generator: Adobe Illustrator 17.1.0, SVG Export Plug-In . SVG Version: 6.00 Build 0)  -->
<!DOCTYPE svg PUBLIC "-//W3C//DTD SVG 1.1//EN" "http://www.w3.org/Graphics/SVG/1.1/DTD/svg11.dtd">
<svg version="1.1" id="Layer_1" xmlns="http://www.w3.org/2000/svg" xmlns:xlink="http://www.w3.org/1999/xlink" x="0px" y="0px"
	 viewBox="0 0 472.7 142.8" enable-background="new 0 0 472.7 142.8" xml:space="preserve">
<g>
	<path fill="#39B54A" d="M137.2,18.2L137.2,18.2c0,0,0-0.2-0.1-0.4c-0.1-0.5-0.2-1-0.3-1.6c-0.8-3.1-3.4-8.9-11.3-10.5
		c-0.2,0-0.3-0.1-0.5-0.1C88.9-2,52.9-1.9,16.8,5.9c-7.1,1.6-9.8,6.7-10.7,9.8C-2.1,53-2,90.4,6.3,127.8c0.9,2.7,3.1,6.6,8,8.6
		c38,8.6,76.1,8.6,114.1,0c5.2-2.1,7.4-6.3,8.2-9C144.7,91,144.8,54.6,137.2,18.2z"/>
	<path fill="#FFFFFF" d="M29.3,57.3c-0.6,0-1.1-0.5-1.1-1.1V38.6c0-0.6,0.5-1.1,1.1-1.1h84.1c0.6,0,1.1,0.5,1.1,1.1V56
		c0,0.6-0.5,1.1-1.1,1.1h-6.8c-0.6,0-1.1-0.5-1.1-1.1v-6.6c0-0.6-0.5-1.1-1.1-1.1H38.3c-0.6,0-1.1,0.5-1.1,1.1v6.8
		c0,0.6-0.5,1.1-1.1,1.1H29.3z"/>
	<path fill="#FFFFFF" d="M113.5,85.5c0.6,0,1.1,0.5,1.1,1.1v17.6c0,0.6-0.5,1.1-1.1,1.1H29.3c-0.6,0-1.1-0.5-1.1-1.1V86.8
		c0-0.6,0.5-1.1,1.1-1.1h6.8c0.6,0,1.1,0.5,1.1,1.1v6.6c0,0.6,0.5,1.1,1.1,1.1h66.1c0.6,0,1.1-0.5,1.1-1.1v-6.8
		c0-0.6,0.5-1.1,1.1-1.1H113.5z"/>
	<circle fill="#FFFFFF" cx="71.4" cy="71.3" r="10.5"/>
	<path fill="#1A1A1A" d="M239.7,40.6c-5.9,0-11.2,1.9-15.6,5.6c-3.9-3.8-9-5.6-15.9-5.6c-8.8,0-13.5,1.6-18,4l-1.5,0.8v54.1h10.9V51
		c2.3-0.9,4.6-1.2,8.2-1.2c4.8,0,10.5,1.4,10.5,8.3v41.5h10.9V54c2.8-2.8,5.9-4,9.9-4c2.1,0,8.6,0,8.6,8.7v41h10.9V58.4
		C258.7,50.2,253.7,40.6,239.7,40.6z"/>
	<path fill="#1A1A1A" d="M285.2,40.6c-7.7,0-13.9,3.2-15.6,4.2l-2.2,1.2l3.7,8.6l2.7-1.6c2-1.1,6-3,10.8-3c7,0,9.9,2.7,9.9,9.2v1.1
		c-14.1,1.7-29.2,6.1-29.2,22.4c0,11.3,7.7,17.8,21.2,17.8c6.7,0,12.8-1.5,17.3-4.1l1.4-0.8V59.4C305.1,47.6,297.7,40.6,285.2,40.6z
		 M294.5,69.2v21.3c-2,0.7-4.7,1.2-7.4,1.2c-9.8,0-11.1-4.5-11.1-8.9C276.1,74.7,280.3,71.4,294.5,69.2z"/>
	<path fill="#1A1A1A" d="M334.9,40.6c-7.8,0-13.9,1.3-19,4l-1.5,0.8v54.2h10.9V51.1c2.1-0.8,4.4-1.2,8.8-1.2c6.7,0,9.7,2.7,9.7,8.8
		v40.9h10.9V58.4C354.8,49.8,349.6,40.6,334.9,40.6z"/>
	<path fill="#1A1A1A" d="M387,40.6c-15.5,0-25.1,11.8-25.1,30.8c0,17.9,8.8,29,22.9,29c3,0,5.8-0.4,8.3-1.1
		c-0.1,8.4-4,12.6-11.6,12.6c-4.2,0-8.2-1.5-10.3-2.7l-2.5-1.5l-4.7,8.6l2.2,1.4c3.9,2.5,9.5,3.8,16.1,3.8
		c13.2,0,21.5-8.9,21.5-23.2V45.4l-1.3-0.8C400.4,43.1,395.4,40.6,387,40.6z M386.2,91.3c-3.3,0-13.4,0-13.4-19.9
		c0-10,2.5-21.9,14.3-21.9c2.5,0,4.5,0.3,6,0.8v39.6C391.2,90.8,388.7,91.3,386.2,91.3z"/>
	<path fill="#1A1A1A" d="M432.9,40.6c-13.9,0-21.9,10.9-21.9,30c0,19,8,29.9,22.1,29.9c13.9,0,21.9-10.9,21.9-29.9
		C454.9,51.3,447.1,40.6,432.9,40.6z M433.1,91.1c-2.8,0-11.2,0-11.2-20.4c0-21.1,8.4-21.1,11.2-21.1c2.7,0,11,0,11,21.1
		C444.1,89,437.8,91.1,433.1,91.1z"/>
	<path fill="#1A1A1A" d="M463.9,30.7c1.2,0,2.4,0.2,3.5,0.7c1.1,0.5,2,1.1,2.8,1.9c0.8,0.8,1.4,1.7,1.9,2.8c0.5,1.1,0.7,2.2,0.7,3.4
		c0,1.2-0.2,2.4-0.7,3.4c-0.5,1.1-1.1,2-1.9,2.8c-0.8,0.8-1.7,1.4-2.8,1.9c-1.1,0.5-2.2,0.7-3.5,0.7c-1.2,0-2.4-0.2-3.4-0.7
		c-1.1-0.5-2-1.1-2.8-1.9c-0.8-0.8-1.4-1.7-1.9-2.8c-0.5-1.1-0.7-2.2-0.7-3.4c0-1.2,0.2-2.4,0.7-3.4c0.5-1.1,1.1-2,1.9-2.8
		c0.8-0.8,1.7-1.4,2.8-1.9C461.5,30.9,462.6,30.7,463.9,30.7z M470.6,39.5c0-1-0.2-1.9-0.5-2.7c-0.4-0.8-0.8-1.6-1.4-2.2
		c-0.6-0.6-1.3-1.1-2.1-1.5c-0.8-0.4-1.7-0.5-2.6-0.5c-0.9,0-1.8,0.2-2.6,0.5c-0.8,0.4-1.5,0.9-2.1,1.5c-0.6,0.6-1.1,1.4-1.4,2.2
		c-0.4,0.8-0.5,1.8-0.5,2.7c0,1,0.2,1.9,0.5,2.7c0.4,0.8,0.8,1.6,1.4,2.2c0.6,0.6,1.3,1.1,2.1,1.5c0.8,0.4,1.7,0.5,2.6,0.5
		c0.9,0,1.8-0.2,2.6-0.5c0.8-0.4,1.5-0.9,2.1-1.5c0.6-0.6,1.1-1.4,1.4-2.2C470.4,41.4,470.6,40.5,470.6,39.5z M460,35.6
		c0-0.2,0-0.4,0.1-0.6c0.1-0.2,0.2-0.3,0.5-0.4c0.2-0.1,0.5-0.1,1-0.2c0.4,0,1,0,1.6,0c1.5,0,2.7,0.3,3.4,0.8
		c0.7,0.5,1.1,1.3,1.1,2.3c0,0.7-0.2,1.2-0.5,1.6c-0.3,0.4-0.7,0.8-1.2,1c0.2,0.3,0.4,0.6,0.6,0.9c0.2,0.3,0.4,0.7,0.6,1
		c0.2,0.4,0.4,0.7,0.5,1c0.2,0.3,0.3,0.7,0.5,1h-2.3c-0.1-0.1-0.2-0.4-0.3-0.7c-0.1-0.3-0.3-0.6-0.5-1c-0.2-0.3-0.4-0.7-0.5-1
		c-0.2-0.3-0.3-0.6-0.5-0.8c-0.1,0-0.2,0-0.4,0c-0.2,0-0.4,0-0.6,0c-0.2,0-0.4,0-0.6,0c-0.2,0-0.4,0-0.5-0.1v3.4h-2V35.6z M462,39
		c0.1,0,0.3,0,0.5,0c0.2,0,0.5,0,0.9,0c0.8,0,1.4-0.1,1.7-0.4c0.3-0.3,0.5-0.6,0.5-1.1c0-0.4-0.2-0.7-0.5-1c-0.3-0.3-1-0.4-1.9-0.4
		c-0.4,0-0.6,0-0.8,0c-0.2,0-0.3,0-0.4,0V39z"/>
</g>
<path fill="#39B54A" d="M137.2,638.7L137.2,638.7c0,0,0-0.2-0.1-0.4c-0.1-0.5-0.2-1-0.3-1.6c-0.8-3.1-3.4-8.9-11.3-10.5
	c-0.2,0-0.3-0.1-0.5-0.1c-36-7.6-72.1-7.5-108.1,0.2c-7.1,1.6-9.8,6.7-10.7,9.8c-8.2,37.4-8.1,74.7,0.1,112.1c0.9,2.7,3.1,6.6,8,8.6
	c38,8.6,76.1,8.6,114.1,0c5.2-2.1,7.4-6.3,8.2-9C144.7,711.5,144.8,675.1,137.2,638.7z M114.6,724.7c0,0.6-0.5,1.1-1.1,1.1H29.3
	c-0.6,0-1.1-0.5-1.1-1.1v-17.4c0-0.6,0.5-1.1,1.1-1.1h6.8c0.6,0,1.1,0.5,1.1,1.1v6.6c0,0.6,0.5,1.1,1.1,1.1h66.1
	c0.6,0,1.1-0.5,1.1-1.1V707c0-0.6,0.5-1.1,1.1-1.1h6.7c0.6,0,1.1,0.5,1.1,1.1V724.7z M60.9,691.7c0-5.8,4.7-10.5,10.5-10.5
	c5.8,0,10.5,4.7,10.5,10.5c0,5.8-4.7,10.5-10.5,10.5C65.6,702.2,60.9,697.5,60.9,691.7z M114.6,676.4c0,0.6-0.5,1.1-1.1,1.1h-6.8
	c-0.6,0-1.1-0.5-1.1-1.1v-6.6c0-0.6-0.5-1.1-1.1-1.1H38.3c-0.6,0-1.1,0.5-1.1,1.1v6.8c0,0.6-0.5,1.1-1.1,1.1h-6.7
	c-0.6,0-1.1-0.5-1.1-1.1v-17.6c0-0.6,0.5-1.1,1.1-1.1h84.1c0.6,0,1.1,0.5,1.1,1.1V676.4z"/>
<path fill="#FFFFFF" d="M239.7,661.1c-5.9,0-11.2,1.9-15.6,5.6c-3.9-3.8-9-5.6-15.9-5.6c-8.8,0-13.5,1.6-18,4l-1.5,0.8v54.1h10.9
	v-48.6c2.3-0.9,4.6-1.2,8.2-1.2c4.8,0,10.5,1.4,10.5,8.3v41.5h10.9v-45.6c2.8-2.8,5.9-4,9.9-4c2.1,0,8.6,0,8.6,8.7v41h10.9v-41.2
	C258.7,670.7,253.7,661.1,239.7,661.1z"/>
<path fill="#FFFFFF" d="M285.2,661.1c-7.7,0-13.9,3.2-15.6,4.2l-2.2,1.2l3.7,8.6l2.7-1.6c2-1.1,6-3,10.8-3c7,0,9.9,2.7,9.9,9.2v1.1
	c-14.1,1.7-29.2,6.1-29.2,22.4c0,11.3,7.7,17.8,21.2,17.8c6.7,0,12.8-1.5,17.3-4.1l1.4-0.8v-36.3
	C305.1,668.1,297.7,661.1,285.2,661.1z M294.5,689.7V711c-2,0.7-4.7,1.2-7.4,1.2c-9.8,0-11.1-4.5-11.1-8.9
	C276.1,695.2,280.3,691.9,294.5,689.7z"/>
<path fill="#FFFFFF" d="M334.9,661.1c-7.8,0-13.9,1.3-19,4l-1.5,0.8v54.2h10.9v-48.5c2.1-0.8,4.4-1.2,8.8-1.2c6.7,0,9.7,2.7,9.7,8.8
	v40.9h10.9v-41.2C354.8,670.3,349.6,661.1,334.9,661.1z"/>
<path fill="#FFFFFF" d="M387,661.1c-15.5,0-25.1,11.8-25.1,30.8c0,17.9,8.8,29,22.9,29c3,0,5.8-0.4,8.3-1.1
	c-0.1,8.4-4,12.6-11.6,12.6c-4.2,0-8.2-1.5-10.3-2.7l-2.5-1.5l-4.7,8.6l2.2,1.4c3.9,2.5,9.5,3.8,16.1,3.8c13.2,0,21.5-8.9,21.5-23.2
	v-52.8l-1.3-0.8C400.4,663.6,395.4,661.1,387,661.1z M386.2,711.8c-3.3,0-13.4,0-13.4-19.9c0-10,2.5-21.9,14.3-21.9
	c2.5,0,4.5,0.3,6,0.8v39.6C391.2,711.3,388.7,711.8,386.2,711.8z"/>
<path fill="#FFFFFF" d="M432.9,661.1c-13.9,0-21.9,10.9-21.9,30c0,19,8,29.9,22.1,29.9c13.9,0,21.9-10.9,21.9-29.9
	C454.9,671.7,447.1,661.1,432.9,661.1z M433.1,711.6c-2.8,0-11.2,0-11.2-20.4c0-21.1,8.4-21.1,11.2-21.1c2.7,0,11,0,11,21.1
	C444.1,709.5,437.8,711.6,433.1,711.6z"/>
<path fill="#FFFFFF" d="M463.9,651.1c1.2,0,2.4,0.2,3.5,0.7c1.1,0.5,2,1.1,2.8,1.9c0.8,0.8,1.4,1.7,1.9,2.8c0.5,1.1,0.7,2.2,0.7,3.4
	c0,1.2-0.2,2.4-0.7,3.4c-0.5,1.1-1.1,2-1.9,2.8c-0.8,0.8-1.7,1.4-2.8,1.9c-1.1,0.5-2.2,0.7-3.5,0.7c-1.2,0-2.4-0.2-3.4-0.7
	c-1.1-0.5-2-1.1-2.8-1.9c-0.8-0.8-1.4-1.7-1.9-2.8c-0.5-1.1-0.7-2.2-0.7-3.4c0-1.2,0.2-2.4,0.7-3.4c0.5-1.1,1.1-2,1.9-2.8
	c0.8-0.8,1.7-1.4,2.8-1.9C461.5,651.4,462.6,651.1,463.9,651.1z M470.6,660c0-1-0.2-1.9-0.5-2.7c-0.4-0.8-0.8-1.6-1.4-2.2
	c-0.6-0.6-1.3-1.1-2.1-1.5c-0.8-0.4-1.7-0.5-2.6-0.5c-0.9,0-1.8,0.2-2.6,0.5c-0.8,0.4-1.5,0.9-2.1,1.5c-0.6,0.6-1.1,1.4-1.4,2.2
	c-0.4,0.8-0.5,1.8-0.5,2.7c0,1,0.2,1.9,0.5,2.7c0.4,0.8,0.8,1.6,1.4,2.2c0.6,0.6,1.3,1.1,2.1,1.5c0.8,0.4,1.7,0.5,2.6,0.5
	c0.9,0,1.8-0.2,2.6-0.5c0.8-0.4,1.5-0.9,2.1-1.5c0.6-0.6,1.1-1.4,1.4-2.2C470.4,661.9,470.6,661,470.6,660z M460,656.1
	c0-0.2,0-0.4,0.1-0.6c0.1-0.2,0.2-0.3,0.5-0.4c0.2-0.1,0.5-0.1,1-0.2c0.4,0,1,0,1.6,0c1.5,0,2.7,0.3,3.4,0.8
	c0.7,0.5,1.1,1.3,1.1,2.3c0,0.7-0.2,1.2-0.5,1.6c-0.3,0.4-0.7,0.8-1.2,1c0.2,0.3,0.4,0.6,0.6,0.9c0.2,0.3,0.4,0.7,0.6,1
	c0.2,0.4,0.4,0.7,0.5,1c0.2,0.3,0.3,0.7,0.5,1h-2.3c-0.1-0.1-0.2-0.4-0.3-0.7c-0.1-0.3-0.3-0.6-0.5-1c-0.2-0.3-0.4-0.7-0.5-1
	c-0.2-0.3-0.3-0.6-0.5-0.8c-0.1,0-0.2,0-0.4,0c-0.2,0-0.4,0-0.6,0c-0.2,0-0.4,0-0.6,0c-0.2,0-0.4,0-0.5-0.1v3.4h-2V656.1z
	 M462,659.5c0.1,0,0.3,0,0.5,0c0.2,0,0.5,0,0.9,0c0.8,0,1.4-0.1,1.7-0.4c0.3-0.3,0.5-0.6,0.5-1.1c0-0.4-0.2-0.7-0.5-1
	c-0.3-0.3-1-0.4-1.9-0.4c-0.4,0-0.6,0-0.8,0c-0.2,0-0.3,0-0.4,0V659.5z"/>
</svg>
