<?xml version="1.0" encoding="UTF-8" standalone="no"?>
<svg width="32px" height="32px" viewBox="0 0 32 32" version="1.1" xmlns="http://www.w3.org/2000/svg" xmlns:xlink="http://www.w3.org/1999/xlink" xmlns:sketch="http://www.bohemiancoding.com/sketch/ns">
    <!-- Generator: Sketch 3.3.2 (12043) - http://www.bohemiancoding.com/sketch -->
    <title>github icon</title>
    <desc>Created with Sketch.</desc>
    <defs></defs>
    <g id="Welcome" stroke="none" stroke-width="1" fill="none" fill-rule="evenodd" sketch:type="MSPage">
        <g id="Desktop-HD" sketch:type="MSArtboardGroup" transform="translate(-468.000000, -1420.000000)">
            <g id="oradores" sketch:type="MSLayerGroup" transform="translate(110.000000, 1260.000000)">
                <g id="perfil-1" sketch:type="MSShapeGroup">
                    <g id="github-icon" transform="translate(359.000000, 161.000000)">
                        <circle id="Oval-1" stroke="#333333" stroke-width="2" cx="15" cy="15" r="15"></circle>
                        <g id="github" transform="translate(7.000000, 8.000000)" fill="#333333">
                            <path d="M15.9056863,7.40633013 C15.9056863,8.73691052 15.7179028,9.82963177 15.3369705,10.6898591 C14.9578266,11.5482981 14.4195138,12.2243188 13.7238206,12.7143444 C13.0281274,13.2061583 12.1929378,13.5477455 11.2236171,13.7426827 C10.2542965,13.9358315 9.18124777,14.0324058 8.00447104,14.0324058 C6.82411747,14.0324058 5.74570353,13.9358315 4.76922922,13.7426827 C3.7927549,13.5477455 2.95935375,13.2061583 2.26902575,12.7143444 C1.57869776,12.2243188 1.04396182,11.5482981 0.663029535,10.6898591 C0.283885662,9.82963177 0.0943137255,8.73691052 0.0943137255,7.40633013 C0.0943137255,6.74998201 0.198041766,6.11509487 0.410863091,5.5016687 C0.621896001,4.88645411 0.943810611,4.33562245 1.37839533,3.84380846 L1.35335753,3.80982858 L1.37839533,3.79373285 C1.28897461,3.57018104 1.22459169,3.33947557 1.19418864,3.09803961 C1.16199718,2.86018049 1.14768986,2.61695612 1.14768986,2.37194333 C1.14768986,2.22887017 1.15126669,2.06791287 1.16378559,1.88907142 C1.17630449,1.70844155 1.19776547,1.52244644 1.23174534,1.32750926 C1.26751363,1.1343605 1.31043558,0.951942221 1.36587643,0.783831259 C1.42131728,0.615720296 1.48748862,0.472647136 1.56796727,0.351034951 L1.63413861,0.351034951 C1.98287943,0.351034951 2.29764038,0.388591655 2.58020987,0.45833982 C2.86277936,0.5298764 3.13282995,0.630027612 3.39036164,0.758793456 C3.64610491,0.885770885 3.89648294,1.03420929 4.13434207,1.20410866 C4.37577803,1.37221963 4.63509813,1.54390742 4.91409079,1.72096045 C5.40411636,1.57967571 5.91381449,1.48488974 6.44139677,1.44017938 C6.97076746,1.3936806 7.49119608,1.37043121 8.00447104,1.37043121 C8.51953441,1.37043121 9.03996303,1.3936806 9.56396848,1.44017938 C10.0861855,1.48488974 10.6030373,1.57967571 11.1037934,1.72096045 C11.3720555,1.54390742 11.6295872,1.37221963 11.8746,1.20410866 C12.1196128,1.03420929 12.3682024,0.885770885 12.6185804,0.758793456 C12.8707469,0.630027612 13.1372206,0.5298764 13.4197901,0.45833982 C13.7023596,0.388591655 14.018909,0.351034951 14.3658614,0.351034951 L14.4517053,0.351034951 C14.519665,0.465493478 14.5822595,0.608566638 14.6341236,0.78025443 C14.6913528,0.950153807 14.7342748,1.1343605 14.7682547,1.32750926 C14.8022345,1.52244644 14.8290607,1.70844155 14.8451565,1.88907142 C14.8612522,2.06791287 14.8719827,2.22887017 14.8719827,2.37194333 C14.8719827,2.61695612 14.8540986,2.86018049 14.8201187,3.09803961 C14.7843504,3.33947557 14.7289095,3.57018104 14.6484309,3.79373285 L14.6484309,3.80982858 L14.6305467,3.84380846 C15.0651315,4.33562245 15.3852577,4.88645411 15.5962906,5.5016687 C15.8037466,6.11509487 15.9056863,6.74998201 15.9056863,7.40633013 L15.9056863,7.40633013 Z M10.7014001,6.68559909 C10.2560849,6.68559909 9.81076968,6.70706007 9.36187764,6.7481936 C8.9129856,6.78753872 8.46588198,6.80721128 8.02235518,6.80721128 C7.57703997,6.80721128 7.12814793,6.78753872 6.67746748,6.7481936 C6.22678703,6.70706007 5.7796834,6.68559909 5.33257978,6.68559909 C4.4097579,6.68559909 3.66220064,6.93597712 3.089908,7.43136794 C2.51940378,7.92854717 2.23504588,8.66179711 2.23504588,9.63290618 C2.23504588,10.4609421 2.41746415,11.0994061 2.78766595,11.5500865 C3.15607934,12.000767 3.62464394,12.3334121 4.19872499,12.544445 C4.77459446,12.7536895 5.3969627,12.8770901 6.07298338,12.9110699 C6.75079248,12.9450498 7.40177535,12.962934 8.02235518,12.962934 C8.44620942,12.962934 8.87900572,12.9575687 9.32789776,12.9450498 C9.7767898,12.9343193 10.2131629,12.898551 10.6423824,12.8395334 C11.0698135,12.7787273 11.477572,12.6821529 11.8620811,12.5480218 C12.2465902,12.4138907 12.5828121,12.220742 12.86717,11.9703639 C13.1533164,11.7199859 13.380445,11.3998597 13.5521328,11.0135622 C13.7238206,10.6290531 13.8114529,10.1587 13.8114529,9.59713789 C13.8114529,9.11963122 13.7345511,8.6975654 13.578959,8.33451726 C13.4251554,7.97325753 13.2105456,7.66922706 12.9369182,7.42242586 C12.6615024,7.17920149 12.3360109,6.99320638 11.9550787,6.8715942 C11.5759348,6.74998201 11.1592342,6.68559909 10.7014001,6.68559909 L10.7014001,6.68559909 Z" id="Imported-Layers"></path>
                            <ellipse id="Oval-3" cx="5" cy="9.5" rx="1" ry="1.5"></ellipse>
                            <ellipse id="Oval-3" cx="11" cy="9.5" rx="1" ry="1.5"></ellipse>
                        </g>
                    </g>
                </g>
            </g>
        </g>
    </g>
</svg>