<?xml version="1.0" encoding="UTF-8" standalone="no"?>
<svg width="32px" height="32px" viewBox="0 0 32 32" version="1.1" xmlns="http://www.w3.org/2000/svg" xmlns:xlink="http://www.w3.org/1999/xlink" xmlns:sketch="http://www.bohemiancoding.com/sketch/ns">
    <!-- Generator: Sketch 3.3.2 (12043) - http://www.bohemiancoding.com/sketch -->
    <title>linkedin icon</title>
    <desc>Created with Sketch.</desc>
    <defs></defs>
    <g id="Welcome" stroke="none" stroke-width="1" fill="none" fill-rule="evenodd" sketch:type="MSPage">
        <g id="Desktop-HD" sketch:type="MSArtboardGroup" transform="translate(-508.000000, -1420.000000)">
            <g id="oradores" sketch:type="MSLayerGroup" transform="translate(110.000000, 1260.000000)">
                <g id="perfil-1" sketch:type="MSShapeGroup">
                    <g id="linkedin-icon" transform="translate(399.000000, 161.000000)">
                        <g id="github-icon-2" stroke="#333333" stroke-width="2">
                            <circle id="Oval-1" cx="15" cy="15" r="15"></circle>
                        </g>
                        <g id="Imported-Layers" transform="translate(9.000000, 9.000000)" fill="#333333">
                            <path d="M0.204106729,4.11510453 L2.83471029,4.11510453 L2.83471029,12.1799921 L0.204106729,12.1799921 L0.204106729,4.11510453 Z" id="Fill-1"></path>
                            <path d="M1.51936395,2.99772046 C0.669201075,2.99772046 0.0116170213,2.33371414 0.0116170213,1.54014561 C0.0116170213,0.762772361 0.669201075,0.0826607407 1.51936395,0.0826607407 C2.3533969,0.0826607407 3.02711088,0.730471783 3.02711088,1.54014561 C3.02711088,2.36610469 2.35348602,2.99772046 1.51936395,2.99772046" id="Fill-2"></path>
                            <path d="M12.5582031,12.1799921 L9.91155876,12.1799921 L9.91155876,7.77514694 C9.91155876,6.88440676 9.67103574,6.07464296 8.72462801,6.07464296 C7.7943502,6.07464296 7.31312593,6.88440676 7.31312593,7.80744752 L7.31312593,12.1799921 L4.66648156,12.1799921 L4.66648156,4.11510453 L7.21688108,4.11510453 L7.21688108,5.2324886 C7.21688108,5.2324886 8.5321383,3.88837066 9.638865,3.88837066 C11.7882443,3.88837066 12.5582031,5.5725894 12.5582031,7.19202703 L12.5582031,12.1799921 L35.5254728,16.2524407" id="Fill-3"></path>
                        </g>
                    </g>
                </g>
            </g>
        </g>
    </g>
</svg>